<svg xmlns="http://www.w3.org/2000/svg" viewBox="0 0 273.7 151">
  <path fill="#FFF5F9" d="M282.3 217.4v-288"/>
  <g fill-rule="evenodd" clip-rule="evenodd">
    <path fill="#FCE5EB" d="M7.3 85.7c-.7-2.1-2.3-.4-3.4-.8-1 0-2-.1-3-.4.3-2.4 4.2-5 0-7.1-2.1-1 0-4.6 0-6.9 1.2 0 2.4-.1 1.9 1.8-.3 1 .4 1.3 1.3 1 .3-.1.6-.4.9-.5.4-.2 1.2.7 1.4-.3.1-.7-1-.5-1-1.2 1.6-1.6 3.7-2.1 6.3-2.1-1.2-1.3-3-1.5-2.5-3.5.2-.7.4-1.4 1-1.3 1.4.4 2.6-.6 4-.3.2.6-.4.8-.7 1.2-.5.8-.3 1.6.5 1.7 2.3.4 2.6 2 2.9 3.8.6 1.6-.6 1.7-1.6 2.1-.3.1-.7-.1-.8 0-1.9 1.5-1.9 1.5-3.8 1.7 1.5-.4 3.1-.2 4.6.6.6 1.5-.2 3.2-.7 4.2-1.1 2-.7 3.9-.7 5.9 0 1.6.1 3.1-1.1 4.3-.7.7-.3 1.6-.2 2.4 0 .5.2 1 .8 1 2.5-.2 5 .6 7.6 0 .3-.1.6-.1.9 0 .7.2 1.5-.1 2.2.2 1 .6 2 .9 3.2.9.7 0 1.7-.2 2 1h-8.5c-1.1.6-2.3-.2-3.4.4-2.7 0-5.4.2-8.1-.4-.1-.4-.1-.8 0-1.3.9-.3 2-.6 1-1.9 0-.1-.1-.1-.1-.2.9-3-1.3-2.7-3-3-1.6-1.2-.3-2 .1-3z"/>
    <path fill="#FCBCCB" d="M28.9 95.1c-.8-.8-1.8-.4-2.7-.4-1.2.1-2.1-.3-2.8-1.3-.5-.4-1.1-.7-1-1.5.4-.7 1-.7 1.7-.6 4.3.9 8.7 1.6 12.7 1.1-1-.5-2.6.7-4.1-.4.6-1.1 2-1.6 2.5-2.9-.6-.6-1.5-.6-2.3-.8-1.5-.3-2.2-1.1-1.5-2.6.5-1 .4-1.8-.4-2.5-2.1-2-1.5-5.9 1.9-6.9.9-.3 1.7-.7 2.1-1.6.6-1.5 1.2-3 3.1-3.5.8-.2.6-.9.2-1.6-.9-1.9-.6-2.6 1.6-2.8 1.3-.1 2-.3 2-1.9 0-1.1 3.2-2.8 4.6-2.6 1.7.2 3.4.1 5.1.3-1-.1-2.4.4-2.4-1.3 0-1.3.9-1.9 2.1-2 1.2-.1 2.3-.5 3.5-.1-1.1-.4-2.3-.6-3.3-1.4-.7-.5-1.1-.2-1.6.4-1.2 1.4-2.2 1.6-3.3.2-1.9-2.5-4.2-3-7-2.6-1.1.2-2-.7-2.9-1.1-.2-.1-.3-.3-.4-.5-.1-.5-.1-.9.2-1.2 1.7.3 3.4-.6 5.1.5.6.4.8-.6 1.3-.9 1.6-.9 3.2-1.8 5.1-1.8 1.5.3 1.5.4.2 2.1 2.3.4 4.6-.4 6.8.5.5.2.9-.4 1.2-.7.8-.9 1.8-1.3 2.8-1.9.5-.3 1.1-.5 1.4.3-.1.9-1.1 1.4-1 2.4.7.6 1.6-.5 2.3.2.1 1.1-.8 1.4-1.5 1.7-1.1.4-1.9 1.1-2.6 2.1.9-.6 1.7-.4 2.2.3 1 1.4 2.3 1.7 3.9 1.7.7 0 1.4.2 2.1.4 1.4.4 2.6.2 3.6-.9.7-.9 1.7-1.2 2.8-1.1 1.2.1 2.3-.3 3.8-1.2-1.6-.4-2.9-.2-4.1-.2-1.5 0-2.8-.4-3.1-2.1 2.2-.1 4.3-.4 6.5-.3 1.7.1 3.5-.2 5.2.2 1.5.3 2.2-.9 3.3-1.4.5 0 .7.5 1 .6.5.2-.9.3.1.5 3.8.7 6.1-3.1 9.7-2.8 1.6.8 3.1.6 4.5-.4.6-.2 1.2-.2 1.9-.1.4.1.9.5.7.6-1.1 1.4 0 3-.6 4.4-.7 1.5-2.2 1.8-3.8 2-1.5.2-3.1.6-4.6-.1-.5-.3-1-.1-1.3.3-1.1 1.4-2.8 1.6-4.4 1.9-1.3.2-2.9-.3-3.4 1.6 0 .1-.2.2-.4.2-3.4-.3-5.8 2.6-9.3 2.6-1.8 0-3.6.9-5.5 1.5-1.3.4-1.8 1.8-3 2.1-1.4.4-2.8.6-4.1.9-.5.1-.7.4-.7.9.2 1.5-.9 1.9-2.1 2.1-1.3.3-2.6.9-3.9.7-1.3-.2-2.4-.2-2.6 1.5 0 .2-.2.4-.4.5-1.3.5-2.6 1.1-3.1 2.7-.2.5-1.1.5-1.7.5-.9 0-1.8.1-2.7.3 1.9-.5 3.7.5 5.6.4.7 0 1.1.5 1.3 1.2.3 1.3 1.2 2.4 1.6 3.6.6 1.5 2.3 1.7 3.6 1.4 1.7-.4 2.7-.1 3.2 1.6.5 1.5 1.8 1.5 3.2 1.5 3.5 0 4.7 2 3 5-.8 1.5-1.1 2.5.5 3.7 1.1.8 1.3 2.5 1.2 3.9-.1 1.5-1.1 2-2.6 1.7-1.5-.8-2.8-1.7-4.6-1.9-1.9-.2-2.4-1.3-1.9-3.1.2-.6.4-1.3 0-1.8-.5-.6-1.2-.2-1.7.1-.9.5-1.7.4-2.7.2-1.8-.5-3.6-.1-5.5-.2-1.1-.1-.1 1.6-1.2 1.8-.3-.1-.6-.3-.9-.4-.3-1.4-1.1-.5-1.7-.4-1.3-1.2-3-1.2-4.8-1.2h-5.3c-1.8.1-3.6.6-5.5.1z"/>
    <path fill="#FCB1C2" d="M64.6 101.8c2.4-.1 2.6-.5 2-3-.3-1.2-.8-2-1.9-2.7-1.9-1.2 0-2.5.5-3.5.5-.9.8-1.8.6-2.8-.3-1.2-1-1.7-2.3-1.6-3.9.1-3.5.7-4.8-2.7-.3-.9-1-1-1.5-.5-1.3 1.3-2.4-.2-3.5-.2-1.8 0-1.8-1.2-1.8-2.4-.1-1.1-1.3-1.5-1.4-2.9-.1-1.4-1.9-.4-2.9-.7-1.2-.3-2.4-1.2-3.6.1-.2.2-1.2-.3-1.2-.9-.1-.7.6-1.1 1.2-.9 1.1.4 2.2-.1 3.3-.1.9 0 2 .1 1.2-1.5-.4-.8.5-1 1.1-1 1.3-.1 2.7 0 2.2-2.1-.2-.8.8-1.1 1.4-.8 2.2 1 4.1-.3 6.2-.5.8-.1 1.4-.7 1-1.4-.7-1.2.1-1.3.8-1.5 2.5-.5 5.3-.3 6.6-3.3 1 .9 1.6-1.7 2.7-.3.1.1.5.2.6.1 1.7-1.7 4-.6 5.7-1.4 2-1 3.9-2.1 6.2-2.1.3 0 .9.1.8-.4-.6-2.2.4-1.3 1.7-1.3 2.1-.1 4.8.3 6-2.5.4-.9.8-.2 1.3 0 1.9 1.2 6.5.5 7.8-1.1.3-.4.7-.7.4-1.3-.7-1.8-.7-1.8.5-3-.7-.7-1.6-.3-2.4-.4.6-1.6 2.3-.9 3.3-1.6.8-.2 1.6-.5 2.5-.5.4 0 .8.1 1.3.1.7.1 1.2.4 1.3 1.1.1.8-.3 1.3-1 1.6-.3.1-.5.2-.8.3-.4.2-.9.3-.8.8.1.6.7.5 1.1.7.2.1.4.1.6.2 1 .7 1.3 1.6 1 2.8-.4 1.3-1.5 1-2.5 1.1-4.4.4-8.7 1.4-12.6 3.7-.9.6-1.9.9-2.9 1.1-3.4.8-6.1 3.3-9.5 3.8-.1 0-.3.1-.4.2-2.8 2.8-6.7 3.2-10.1 4.7-.4.2-.8.4-1.2.4-2.1 0-3.2 1.3-3.5 3.2-.3 1.6-1.2 2-2.8 2.1-2 .2-4 .1-6 .7 2.6-.6 4.4 1.2 6.6 1.9 1.2.4 2.3 1.2 3 2.3 1.1 2 3.4 2.9 4.3 5.1l.3.3c.8.4 2.2-.1 2.3 1.1.1 1.5-.2 3.2-1 4.5-.8 1.5-1.9 2.7-1 4.6.5 1-.7 1.7-1 2.7 4.8-1.1 4.8-1.1 5.9 3.7.2 1 .6 2 .3 3.1-.1.5-.3 1-.5 1.4-.8 2.2-.4 2.7 1.9 2.4.2.2.4.4.4.7.1.8.6.8 1.1.5.5 0 1.1-.1 1.6-.1.7.2 1 .7 1.3 1.3.5.9 1.2 1.2 2.2 1.2 3-.1 3.4.3 2.4 3-.4 1.1 1 .9.8 1.7 0 .2-.1.4-.2.5-.3.3-.7.6-1 1.1-.6.9-.6 1.6.6 1.9.8.2 1.9.4 1.5 1.6-.3 1-1.3 1.1-2.3 1-1.9-.1-2.7.7-2.1 2.3.4 1.1 1.9 1.3 2.9 1.5 1.7.3 3.4-.7 5.2-.3.3.1.6-.7 1.1-.9.2-.1.4-.1.6-.2 2.1-.2 4.2-.7 6.1.6.7.5 1.1.1 1.4-.7.7-2 1.6-2.1 3-.6.4.5.7 1 1 1.5.6-1.8.9-3.7 3.4-4.1.9-.1 1.5-1.6 2.4-1.6 2.3-.1 4.4-.4 5.9-2.4.4-.6 1.6-.3 2.4-.1 1 .3 1.8 0 2.6-.6.6-.1 1 .2 1.1.8-.1.7.2 1.2 1 1.3 2.3.1 4.5.7 6.8.8.6 0 1.2-.1 1.6.3 1.5 1.5 2.3.7 3-.8.7-1.6 2.6-2.2 3.3-3.8.1-.2.3-.3.4-.4.7-.1 1.3.1 1.6.7.4.8.9 1.3 1.8 1.6.9.3.4 1-.1 1.4-.2.1-.3.2-.5.2-.9 0-1.2.5-1.3 1.3-1.4 2.1-3.5 3.1-5.9 3.6-2.2-2-5-1.7-7.6-1.5-1.2.1-2.3.2-3.2-.7-.3-.3-.7-.6-1.1-.2-2 1.7-5 1-6.8 3.2-.1.1-.2.1-.4.2-1.4.6-3-.6-4-.1-1.1.6-1.7 2-3.2 2.5-2.6.8-5 2.1-6.8 4.3-.7.8-.2 1.8.9 1.9.8.1 1.8.2 2.5-.1 1.6-.6 3.2-1.1 4.9-.4.1.1.3 0 .4-.1 1.8-2.2 4.5-.8 6.7-1.6.8-.3 1.7-.5 2.3.3.8 1-.3 1.5-.7 2.1-.5 1-1.1 2-2.5 2-1.9 1-3.7 1.7-5.5-.2-.5-.5-1-.4-1.2.4-.1.4-.2.8-.4 1.2-.7 1.9-1.5 2.2-3.3 1-.5-.2-1.2-.2-1.5-.5-2-2.4-4.6-1.8-7.3-1.7-3.4.2-6.8.7-10.2.2-.3 0-.7.2-1 .3-.7.3-1 1.6-2.1.9-1-1.1-2.2-1.3-3.5-.8-.9.4-1.9.3-2.9.3-.2-.2-.3-.4-.2-.6.5-.8 5.1-2.8 5.7-2.3 1.6 1.2 3.2.2 4.5.5h-2c-.5 0-1.2.3-1.5-.5-.1-.3-.1-.6.1-.8.5-.6 1 0 1.9.1-1.6-1.4-2.4-3.1-4.4-3.8-1.9-.6-2.2-1.6-1.4-3.4.6-1.3.4-2.3-.6-3.3-1.6-1.4-2.6-2.9-1-5.1.5-.7.2-1.9.8-2.8.1-.2.1-.5-.2-.5-2.2-.5-2.3-2.9-3.7-4.2-.3-.3-.6-.5-1-.7-1.6-.4-3-1.1-3.8-2.7-.8-1.5-2.3-.6-3.4-.6-.8-1.6.3-1.7 1.4-1.9.1 0 .2 0 .2-.1 0-.3-.3-.1-.4-.3-.3-.5-.1-.9.2-1.2-.3-1.4-1.1-2.4-2.4-3.1-.4.6-1.2.5-1-.4z"/>
    <path fill="#FCDCE2" d="M253.4 87.8c-1.5.4-2.4 1.8-4.2 1.8-.9 0-.3 1-.1 1.5.2.3-.1.5-.3.7-.8.3-.9 1.2-1.6 1.6-1.5.5-3.3.1-5 1.7 6.7-.9 13-1.6 18.7-4.5 1.6-.4 3.1-.8 4.7-1.3.4-.1.5.1.5.4 0 1.5.1 2.9 1.7 3.8.6.4 1.1 1 .4 1.7-.2.5-.9.4-.9 1.1 1.6.4 3 1.7 4.8.6.8.1 1.6.3 1.7 1.3-.3.6-.7 1-1.3 1.3-.6.5-1.5-.1-2.1.4-.7.3-1.4.6-2.1.8-.8.2-.8.8-.9 1.4 0 .9.4 1.2 1.3 1.2.1 1.3-1.2 1.3-1.7 2.1-2.4 2.2-5.3 3.5-8.5 3.8-2.4-2.3-4.8-.9-7 .3-3 1.7-6 2.7-9.4 2.8-1.7 0-3.2.8-5.2 1.3 1.3.6 2.8 0 3.1 1.6-.5 1.7-2.3 1.3-3.4 1.9-1.3 0-2.5.1-3.4 1.1-.4.5-1.1.5-1.8.4-.7-.2-1.3 0-1.7.5-1.2 1.4-3.1.8-4.5 1.7-.5.3-1.1-.2-1.4-.7-.4-.5-.3-1 0-1.6.5-.8 1.4-1.2 2.2-1.5.7-.3 1.4-.7 1.9-1.2-1.8-2.9-4.3-2.8-7.1-1.7-.8.3-1.7.8-2.6.7-.1-1.7 1-3 2.9-3.7.9-.3 1.8-.3 2.3-1.5-1-.2-2.5 0-1.7-1.8 1.4-2.3 1.6-5.1 3.8-7 1-.9 1.7-1.7 3.3-.8.7.4 1.8.4 2.9-.1-.5-.6-1.1-.3-1.6-.3-.7.1-1.3.1-1.6-.6-.3-.6-.3-1.2.2-1.8 2-2.3.9-4.7.4-7.3-.4-2.5-1.3-5.1-.4-7.7.3-.8.5-1.6.3-2.5.4-1.3 1.3-1.3 2.3-.8.5.3 1.1.6 1.3 1 .8 1.6 2.1 1.6 3.5 1.2 2.3.4 4.4-.2 6.3-1.7.6-.5 1.2-.8 1.9-1 2.2-.6 4.3-1.7 6.6-2.3.5 0 1-.2 1.5-.3 1-.1 2.1-.2 2.5 1 .4 1-.4 1.7-1.1 2.3-.8.7-1.8 1.2-2.9 1-2.4-.3-4.3.8-6.1 2-1 .7-1.8 1.3-3.1 1-.8-.1-1.6.2-2.2.7-1 .8-.7 1.9.4 2.4 1.6.7 3.2 1.2 4.7 1.8 1 .4 1.8.3 2.8-.2 1.8-.9 3.4-2.1 5.4-2.3.6-.1 1.2-.1 1.4.6.2 1.2-.4 1.5-.8 1.7z"/>
    <path fill="#FCA2B4" d="M224.5 48.8c-1.1.7-1.7 1.7-1 3 .3.5.3 1.1-.1 1.6-1 1.4-.2 2.2 1 2.6 2 .6 2.8 2.1 3.2 3.9.1.3.5.5.7.7.2.8-.2 1.7-.9 1.6-1.4-.1-.5.9-.8 1.3-2.2.6-2.5 3.1-4.1 4.4-.1.1.2.5.3.7-.6 1.1.8.3.8.8.4.5 1.7-.1 1.4 1.2-.1.2-.3.3-.5.4-2.3-.5-1.7 2.1-3.2 2.8 1.9.2 2.2 2.6 4.2 2.4.4.1.8.3 1.1.5.3.2.5.4.7.6.9 1.8-.7 3.7-.1 5.5.1.2-.1.4-.1.6 1 3.9-.8 7.1-2.4 10.3-.1.2-.3.3-.4.4-1.4.6-2.7 1.2-3.4 2.7-.3.7-1.1.9-1.8.5-.8-.4-.6-1.2-.3-1.9.2-.4.4-.7.7-1 4.3-4.3 3.8-9.6 3-14.9-.2-1.6-2.6-2.4-4.3-1.6-.7.3-1.2.5-2 .4-2-.3-2.9.8-2.9 2.7.1 3.2.2 6.4-2.1 9.3-1.2 1.5-1 3.8-.7 5.7.2 1.4.3 2.4-1.4 2.6-.8.1-1 .6-1.1 1.3-.6 3.2-2.8 5.6-3.9 8.4 1.7-.7 4.1-2.7 5.3-4.6.8-1.3 2-2.2 3.3-2.9 1.4-.7 1.9-.3 2 1.3 0 1.1-.3 2.1-1.1 2.9-1.7 1.8-3.3 3.7-5.5 4.9-1.4.8-2.5 1.8-3.4 3.1-.5.6-1.2.9-1.9 1.2-.9.2-1.7 1.1-2.7.5-.5-.7.1-1.3 0-2.2-1.2 0-1.9.7-2.5 1.6-.6.7-1.3 1.2-2.2.8-.9-.4-.8-1.2-.8-2 0-.9.1-1.6 1.3-1.8 1.4-.3 2.1-1.3 2.5-2.8 1-3.8 1.9-7.7 5.3-10.2 1.5-1.1 1.4-3 1.6-4.7.1-.6-.2-1.5.2-1.8 2-1.6 1.4-3.5 1.1-5.6-.3-1.7.2-3.6.8-5.2 1.7-4 .2-7.8-.8-11.6-.3-1.2-.6-2.2.3-3.1.3-.3.7-.8.5-1.1-1.6-2.8.4-5.5.4-8.2 0-2.2-.5-4.1-1.4-6-.4-.8-.8-1.5-.5-2.4.3-1.3-.3-2.3-1.1-3.1-1.1-1.1-2.2-2-3.2-3.2-.7-.9-1.1-1.7-1.6-2.7-.7-1.6-2.6-2-4.1-2.6-.9-.4-1.8-.6-2.3-1.6-.5-1-1.3-.5-2-.2-2.6.9-5 0-7.3-1.2 1.5-1.8 2.7-2.1 4.7-1.3.6.3 1.2.8 1.9.4 1.8-.8 3.3-2.5 5.6-1.9.3.1 0-.1.2 0 1.8.9 3.4 1.8 5.6 1.7 1.2 0 1.1 1.5-.1 2.8 1.8 1.4 2.9 3.3 3.6 5.4.5 1.5.8 2.8 2.6 3.3 1.5.4 2.2 1.4 1.4 3.1-.9 2 .9 2.7 2 3.7 1.1.9 2 .1 2.7-.6.7-.7 1.5-1.3 2.5-1.6 2.3-.9 2.9-.6 3.8 1.9.5-1.2.4-2.6 2-2.8.9.3 1.4.5 1.7.9z"/>
    <path fill="#FCE5EB" d="M105.3 141.3c2.4.6 2.8.4 3.2-2.9.1-1.2.9-1.2 1.3-.7 1.8 2.1 3.6 2.1 5.7.6.9.6 1.5.1 1.9-.5.3-.4.6-1 1.1-1.2 2.1-.7 4.1-1.5 5.2-3.6 1.9.2 3.2-.9 4.5-2 1 .6 2.2 1 2.7-.4.6-1.6 1.7-1.6 3-1.5.2.1.3.2.5.3 1.8 1 2-1.2 3.1-1.5.3-.1.6-.2.9-.2 3.7-.5 7.4 0 11.1-1.1 1-.3 2.4.6 3 1.9.1.7.5 1.1 1 1.5.7.4.9 1 .5 1.8-.2.8.6.6.9.9.3.3.8.7.5 1-1.3 1.4-.5 2.9-.6 4.4 0 1.4-.6 1.7-1.7 1-1.3-.8-2.6-.7-3.9-.3-.6.2-1.3.6-1.8.3-3.4-1.4-6.9.3-10.3-.5-1-.2-1.9-.2-2.8-.8-.5-.4-1.1-.6-2-.2 2.1 1.7 4.5 2.5 6.9 2.2 2.5-.4 4.9-.2 7.4-.3 2.9-.1 5.7-.4 8.6.1 2.3.4 3.9 2.7 2.9 4.9-.4.9-.1 1.1.6 1.3 1 .2 1.5.6 1.8 1.8.3 1.1 1.7 1.2 2.7 1.8.7.4 1.7.6 1.2 1.8h-1.7c-1.1.2-2.3.2-3.4 0h-.5c-.6.6-1.5-.3-2.1.4h-.4c-2.6-1.2-5.3-1.2-8.1-.5-.7.2-1.4-.7-2.1.1h-.8c-.7-.9-1.7-.8-2.7-.7-1.2.2-2.5.4-3.7 0-1.1-.4-1.3.5-1.7 1.1-.6-.1-1.1-.3-1.7-.4-1.1.7-1.9-.4-3-.5-1.6-.1-3.1-.3-4.7-.4-2.4-.1-4.5-1.2-6.7-1.9-.3-.1-.6-.5-.9-.5-2.3.1-4.6-.6-6.4-1.6-1.6-.9-3.5-1.2-5-2.3-.7-.4-1.5.1-2.1-.4-1-.6-1.3-1.4-1.4-2.3z"/>
    <path fill="#FCA5B7" d="M191.4 33.5c-.4.5-1.1.6-1.5.2-1.9-1.8-3.6-.8-5.3.2-.4.4-.8.6-1.3.8-4.6 1.1-8.9 2.9-13.6 3.7-4.9.8-9.3 2.9-13.9 4.8-2.7 1.1-5.5 1.8-8.5 2.1-3.3.4-6.6 1.2-9.5 3.2-1.9 1.3-4.1 2-6.1 3.4-2.2 1.5-5 1.3-7.6 1.1-.9-.1-1.6.1-2.3.7-2 1.8-3.9 1.7-6 0-2.2-1.8-2.2-1.8-4.7 0-.3.2-.5.5-.8.7-.6.4-1.2.9-1.8.2-.6-.7-.1-1.3.5-1.8.5-.5 1.2-.9 1.4-1.6.6-2.1 2-2.9 4.1-2.3.2-.4.1-.7 0-.7-2 0-4.1-1-6.2 0-1.1.5-2.2 1.3-3.5 1.3-.8.1-1.7.3-2.5.4-2.1.7-4.5.4-6.5 1.8-.3.2-.8.1-1.2-.1-2 .4-4 .7-5.2 2.6-.4.7-1.3.4-2 .3-.5 0-1-.4-1.4-.3-1 .1-2 .3-2.4-.9-.1-.1-.2-.2-.2-.4s.1-.3.2-.4c1.4-2.2 3.8-.7 5.6-1.2 1.3-.3 1.9-.8 2.1-1.7.5-1.6 1.5-2 3-1.9.9 0 1.8-.4 2.6-.8 3-1.4 6.3-1.5 9.6-1.6.3.5.5 1.5 1.5.8 1.2-.8 2.5-.8 3.8-1.1 2.6-.5 4.8-2.2 7.5-2.5 3.5-.3 6.9-1.3 10.2-2.5 1-.4 2.2-.6 3.3.1.3.7-.2 1.2-.7 1.2-1.4.2-2.7 1.1-4 1.2-2.6.3-4.9 1.3-7.3 2.7 1.3.4 2.4-.1 3.4-.2.9-.1 2-.4 2.4.7.4 1.1-.4 1.8-1.2 2.5-.5.4-1.2.4-1.9 1.5 3.2-1.1 6-1.7 8.7-3 2.3-1.2 4.6-2.5 7.4-2.4 1.8 0 3.3-1.4 5.2-1.4 2.9 0 5.3-1.5 8.1-2.7-1.1-1.4-2.4-2.2-4.2-1.9-1 .1-2 .1-2.9.4-3 .9-6.1.8-9.1.6-1-.1-1.9.7-2.9.2-.6-.7 0-1.1.3-1.7-1.5-.4-3.3.6-4.7-.6-.1-.4 0-.8.3-.9 1.7-.3 2.6-2.2 4.5-2.4 1.6-.2 1.3-1.7 1.6-2.8.4-.7.8-1.2 1.7-1.3.4.2.6.5.8.9.2.5.6.9 1.1 1.2.9.5.8 1.3.6 2-.2.9-.9 1-1.7.8-.6-.1-1.3-.2-1.6.2 1.3 2.2 3.7.6 5.5 1.5.9.5 1.6-.8 2.3-1.5.6-.6.5-1.5.2-2.2-.5-1.1-1.5-.4-2.2-.4-.8 0-1.6 1-2.3-.1-.7-1.1.1-1.8.8-2.6.8-.9 1.6-1.8 2.9-2 .4 0 .7.1 1 .3.1.1.3.1.4.2.2 0 .4-.1.6-.2.2-.1.3-.1.5-.1.8.2 1.5.4 2 1.1.1.4.1.8-.2 1.1.3.6.6.9 1.3.6 3.6-1.8 7.1-3.6 10.7-5.3 4.4-2.1 8.7-4.8 13.4-6.3.4 1.5-.2 2.3-1.7 2.7-1.5.4-3 1.1-3.8 2.8-.3.7-.8 1.1-1.7 1-1.3-.2-2.3.4-3 1.3-.8 1-1.7 1.4-2.9.9-.6.6-.2 1.3-.4 1.8-.2.7-.5 1.2-1.3.9-.7-.3-1.3.1-2 .2-1.6.3-2.5.8-2.3 2.6 0 .5-.4 1.1-1 .8-1.6-1-2.7.7-4.1.6 3.1.5 3 .4 7.5-1.9 5.2-2.7 10.2-5.7 14.7-9.5 1.2-1 2.7-2.5 4.6-.8.3.3.8 0 1.1-.4.4-.6.5-1.2.1-1.8-.4-.7-1.2-1-1.7-1.6-.3-.8.5-1 .9-1.4 1.1-1 3-.6 3.8-2.1 1.3.8 1.5 1.4.5 2.2-1.2 1-1.6 2.2-1.5 3.7.1 3 .1 3-3.6 4.4-.5.2-1.1.1-1.4.8-.7 1.9-2.4 2.8-4 3.7-1.8 1-3.3 2.4-5.2 3.2-1.8.7-2.9 2.3-4.5 3.6.8.6 1.5.3 2.1.1 2.7-1.1 5.4-2 8.1-2.9.9-.3 1.8-.8 2.9-.5.7.2 1.3-.1 1.6-.7.8-1.3 1.8-1.1 2.9-.6.7.4 1.4.5 2.2.2 2.5-1.2 5.1-1.3 7.8-1.3 1.4.5 2.6 1.1 3.1 2.5z"/>
    <path fill="#FCAEBF" d="M191.4 33.5c-2.1-1.9-4.3-1.3-6.9-1.2-2.4.1-4.8 2.8-7.3.4-.5-.5-1.1-.1-1.2.4-.4 1.8-1.5 1.6-2.8 1.3-1-.2-1.8.5-2.7.8-3 .9-6 2-9 3-.4.1-1.1.9-1.4 0-.2-.7-.1-1.3.6-1.9 3.5-3 7.8-4.8 11.5-7.5.5-.3 1.1-.7 1.2-1.2.5-2.5 2.8-2.3 4.5-2.9 1.8-.6.4-2.2 1.2-3 1.8-.2 3.6-.4 5.5-.2 2.3.2 5.2.4 6.7-2.3 2-1.4 4.6-1.6 6.1-.5.3.2.5.5.3.9-.2.7-.8 1.5 0 2s1.5-.3 2.3-.7c1.6-.9 3.1-2.1 4.9-.5.2.3.9.3.8.5-1.1 1.5.4 1.6 1.1 2.2 2.3 2.3 5.7 3 8.1 5.3 1.4-2 1.7-2 3.1.3 1.2 1.2.6 2.1-.7 2.9 1.5 1 3.9.9 3.3 3.6-.9.6-1.2 1.2-.4 2.1.2.4 0 .9.3 1.3 1 1.3 1.5 2.7.9 4.4-.4 1.2.5 2.4 1.3 3.3.5.6 1.1 1.1.4 1.9-.8.5-1.6 1.1-1.3 2.3.2.8-.4.9-1 1-.8 0-.9-.5-.8-1.1.4-1.7-.6-1.7-1.7-1.3-1.4.4-2.7 1.1-3.6 2.3-1 1.2-2.1 1.2-3.2.2-1.4-1.4-3.2-2.4-1.7-5 .8-1.4-1.6-1.9-2.1-1.9-2.3-.1-1.8-2.1-2.2-3.2-.3-.7-.3-1.5-1-2-.5-.3-.8-.8-.8-1.4-.1-1.2-.6-1.6-1.8-1.6-.4 0-.9-.1-1-.6 0-.4.4-.6.7-.6.8-.1 1.7-.2 1.2-1.4-.5-1.1-1.6-1-2.3-.6-1.2.8-1.6.7-2.1-.6-.5-1.2-3-1.5-4.4-.7-.7.5-1.7 1-2.6 1.5z"/>
    <path fill="#FCD1D9" d="M24.2 91.7c-.6.1-1.3-.2-1.7.4-.2.5-.3 1-.8 1.3h-.8c-2-.4-4-.5-5.9-.6-1-.1-2.1.1-3-.6-.4-1.2-1-2.3.6-3.2.7-.4.7-1.3.7-2.1-.1-1.6-.3-3.1-.4-4.7 0-.4-.2-1.1 0-1.2 1.9-1.3.5-3.9 2-5.3-1.1-1-.8-2 0-3 .1-.8 2.5.1 1.3-1.7.5-1.5 2.2-2 3-3.3 1.5-2.5 3.8-4.3 6-6.2.8-.7 1.8-1.2 2.8-1.5 1.2-.4 2.3-1.1 3.3-1.8.5-.3.9-.7.8-1.4-.1-.7-.7-.8-1.3-1-1.1-.3-2.2-.4-3.4-.4-.6 0-1.3 0-1.8-.4-.2-.2-.2-.4-.1-.5.2-.3.5-.2.7 0 1.3-.3 2.8 0 3.4-1.7.6-.9 1.3-.6 1.7 0 .3.6.9.5 1.3.8.8 0 1.1-1.4 2.1-.9-.1 1.2 1 1.2 1.7 1.7 2.2 1.4 2.2 1.4-.1 3.4-1.5 1.3-2.8 2.8-4.9 3-.6.1-1.2.5-1.4 1.1-.8 1.9-2.3 3.8-2.3 5.6 0 2.5-.9 4.7-1.1 7-.1 1.2-.3 2.1-1.2 2.9-1.4 1.3-1.3 4.3 0 5.9.6.8 1 1.6.6 2.5-.4.9-.2 1.5.6 2 .9.6 1.8 1.1 1.4 2.5-.4 1.3-1.6 1.3-2.6 1.4-.3 0-.7.1-1.2 0z"/>
    <path fill="#FCCED6" d="M187.2 147.2c.2 1 .6 2.4-1.1 2-2.2-.5-4.4-.6-6.5.1-.4.1-1 0-1.3.4-1.9.2-3.6 1-5.5.8-1.1.3-2.3.6-3.5.2-.6-.2-1-.5-1-1.2s.5-1 1.1-.9c1 .1 1.5-.5 1.5-1.4 0-.9-.1-1.8-1.2-2.2-1.8-.6-2.9-2.4-4.7-3-.2-.1-.4-.2-.4-.4-.5-2.3-2.5-3.8-3.2-6 .8-.6 1.6-.3 2.4-.1 2.1.5 4.1 1.4 6.2 1.8 2.2 0 4.5-.3 6.6.8.8.4 1.6-.4 2.3-.7 1.4-.5 2.6-.6 3.5.8.8 1.1 1.9 1.1 3 .4 1.8-1.2 3.9-2.1 5.5-3.5 2.7-2.4 6.1-3.1 9.2-4.5 3.3-1.5 6.9-2.3 9.3-5.4.2-.2.4-.3.7-.4 1 1.1 1 1.2-.6 2.6.4 0 .7-.4 1.1-.5.6-.2 1.1-.2 1.5.4.3.5.2 1.1-.3 1.3-1.3.8-1.9 2.3-3.1 3.1-1.1 1.5-2.4 2.9-3.6 4.2-.7.3-1.4.6-2.1.8-.6-.8.1-1.3.6-1.8.9-1.1 1.8-2.1 2.5-3.3-.2-.4-.6-.4-.7-.2-1.5 1.8-3.8 2.7-5 4.8-.5.9-1.5 1.5-2.3 2.1-2 1.4-4 2.8-5.2 5.1-.9 1.7-3 1.6-4.5 2.6-.6.6-1.1.6-1.2 1.2z"/>
    <path fill="#FCBCCB" d="M66.7 109.5c2.1-1.3 3.2-1.2 4.2.9.6 1.2 1.7 1.4 2.7 1.9.9.4 2.7-.2 2.1 1.9-.1.3.5.2.9.2.3 0 .9.2.8.5-1.2 3 1.5 1.9 2.9 2.6-2.2 1.1-.7 3.6-2.5 5.1-.8.7.4 2 1.2 2.8 2 1.8 2.1 2.3.9 4.8-.8 1.6.6 2 1.6 2.2 2.4.7 3.3 2.7 4.7 4.5-1.1.4-1.6-.1-2.3-.2 1.2 1.5 3.1.2 4.6 1.1-1.6.5-3.4-.3-4.9.9-1 .7-.3-1.6-1.6-1.2-.9.3-.7 1.8-1.8 1.4-1.5-.6-2.3.3-3.1 1.2-.8.1-1.6.6-2.5.4-1.4-.5-2.8-.3-4.2 0-.7.4-1.3.5-1.7-.4.1-1.1-.9-1.2-1.6-1.5-1-.4-1.6-.9-.5-1.9 0-1.5-1.6-1.4-2.4-1.9-1.3-.8-.9-1.2-.2-2 .8-.6 1.5-.7 2.1.3 1 1.7 2.7 2.8 4 4.3.7.9 1.7 1.2 2.8.7.7-.3 1.5-.3 2.3-.2.6.1 1.1-.1 1.4-.7.2-.5.1-1-.3-1.4-1.1-1.1-2-2.7-3.3-3.6-2.7-1.8-2.6-4.5-2.8-7.1-.1-1.3.1-2.5-.7-3.6-.1-.2-.3-.5-.2-.6 1.3-1.9-.4-4.1.4-6 .2-.7.3-1.4-.2-2-.5-.6-.9-1.5-1.7-1.4-1.1.1-.8 1.2-.8 1.9 0 2-1.4 3.5-2.1 5.3-.2.5-.8.8-1.4.6-.7-.2-1.1-.6-1-1.4.9-.7-.5-.9-.3-1.5.1-1.4.5-2.8.5-4.2.3-.5.8-.4 1.3-.4.1-.2.3-.2.4 0 .1.1.1.3.1.4.1-.3-.1-.4-.2-.7.4-.8.6-2.3 2.4-2z"/>
    <path fill="#FCCBD4" d="M62.4 118c.1.7.4 1.3 1.2 1.2.7-.1.8-.6 1-1.2.6-2 2-3.6 1.7-5.9-.1-1.4 1.1-1.7 2-.8 1.1 1.1 2.8 2.1 1.6 4.2-.4.7-.5 1.7 0 2.4.7 1 .8 1.6-.2 2.4-.6.4-.4 1 .1 1.4.7.6.9 1.5.6 2.3-.6 2 .5 3.7.5 5.6 0 .6.3 1.3 1 1.5 2 .9 2.7 3.1 4.4 4.3.6.5 1.4 1.4.7 2.2-.6.6-1.3 1.9-2.6.8-.2-.2-.9-.1-1.2.1-1.9 1.3-3.3.3-4.2-1.2-1.1-1.6-3.3-2.2-3.8-4.4-.2-.9-1.1.8-1.5-.2-.9-.6-1.9-.8-3-.9-.6-.7-.2-1.3.4-1.7.4-1.6-1.4-.4-1.7-1.3-.4-.6-.5-1.2-.2-1.8 1-1.9.9-3.9 1.1-5.9.3-1.2.2-2.8 2.1-3.1z"/>
    <path fill="#FCE2E8" d="M253.4 87.8c.2-.4.3-.7.5-1.1-.3 0-.7-.1-1-.1-2.1.6-4 1.5-5.8 2.7-.9.6-1.5.6-2.3.1-1.4-1-3.4-.8-4.7-2.1-.4-.4-1.5.9-1.6-.7-.1-1-.4-2 .4-2.5.9-.6 2.1-1.4 3.2-1 .8.3 1.2.2 1.8-.3 2.1-1.7 4.3-3.2 7.2-2.7 1.5.3 2.4-.9 3.3-1.9.3-.3.4-.8 0-1.1-1.1-.8-2.3-.2-3.4.1-.6-1 .4-1.3.9-1.8.5-.4 1.2-.6 1.7-1.2 2.9-.8 5.4-2.7 8.3-3.3 2.5-.5 3.8.5 3.6 2.9-.6 1-1.6.9-2.6 1.1-.9.2-1.5.6-.8 1.6.7.9-.3 2 .4 2.8-.2 1.4-2.6 1.9-1.7 3.8.6.7 0 1.2-.4 1.7-1.9 1-3.6 2.3-5.7 2.8-.6.2-.9.7-1.3.2zM197.8 19.5c-1.7-1.4-4.4-1.4-5.9 0-.4.3-.9.2-1-.2-1-2.4-3-2.8-5.3-2.9-1.5-.1-2.3-.8-2.2-2.4 3-2.4 6.9-3.5 9.9-5.9 3.4-2.8 7.1-5.2 10.8-7.5.7-.4 1.4-.6 2.2-.6.2 1.1 2.1 1.1 1.7 2.5-1.5 0-1.7 1.8-3 2.1-.2.6 0 .7.6.7.7 0 1.3.1 1.1 1-.9 3.7-3.2 6.4-6.1 8.8-.6.5-1.3.8-1.2 1.8.4.6.1 1.3-.3 1.3-1 .1-.6.9-.9 1.2-.1.1-.3.1-.4.1z"/>
    <path fill="#FCDCE2" d="M161.3 135.8c1.2 1.3 2.8 2.4 3 4.5.1.6.4 1.2 1 1.6 1.3.8 3 .8 3.6 2.6 0 .1.3.2.5.3 2 .5 2.8 3 1.4 4.6-.3.4-.6.5-1.1.3-.4-.2-.9-.9-1.1 0-.2.6.3 1.1 1 1.1 1.1.1 2.1 0 3.2.1-.3.5-.8.4-1.3.4-.7.3-1.4.3-2.1 0-1-.1-2 .2-3 .4-.7.1-1.4-.1-2.1-.4-.7-1.7-2.5-1.7-3.9-2.3-.4-.2-1.2-.1-.8-.7 1.1-1.8-.2-1.6-1.2-1.8-1.8-.4-2-.8-.6-2.1.6-.6.5-1.1.2-1.7-.6-1.1-1.1-2.4-2.6-2.5-5.4-.3-10.8-.4-16.2.3-2.7.4-5-1.1-7.4-2.1-.6-.3-.6-.8-.1-1.1.8-.6 1.6-.7 2.4-.1 2.5 2 5.8 1.7 8.1 1.2 3-.8 5.8 1.7 8.7-.2.9-.6 2.5-.2 3.4 1.2-.5-1.3.5-2.5-.3-3.7-.2-.3-.2-1 .2-1.3.3-.3 1.1-.2.9-.9-.2-.6-.8-.4-1.3-.5-.4 0-1 .2-1.1-.4-.1-.6.6-.6 1-.9 2.1.1 3.7 1.4 5.5 2 .7.6 1.7 1 2.1 2.1z"/>
    <path fill="#FCD9DF" d="M26.4 54.3h-.2c-.2.1-.3.3 0 .4 1.7.1 3.3 0 5 .4.8.2 1.4.4 1.8 1.2.4 1-.5 1.3-.9 1.9-.7.8-1.8 1.4-2.6 1.6-2.9.6-4.5 3-6.7 4.4-1.3.8-1.8 2.4-2.8 3.5-1.1 1.2-2.1 2.3-3.6 3.1-.3-.2-.7-.4-.5-.8.9-1.5.2-2-1.2-2.2-1.1-.1-1.8-.7-2.1-1.8-.4-1.4 1-1.4 1.6-2.1 1.3-.4 3.3-.1 2.5-2.5-.6-.7 0-1.2.4-1.7 1.5.3 2.3-.9 3.3-1.5.6-.4.3-.7-.1-1.2-.8-.8-.3-1.7.1-2.5.4-.7 1-.8 1.8-.6.7.2 1.4.3 2.2-.2.6-.3 1.4-.1 2 .6z"/>
    <path fill="#FC91A8" d="M175.7 19.1c2.5 1.1 3.2 2.3 2.1 3.8-.7.9-1.6 1.8-2.5.2-.5-.9-1-.5-1.5-.1-2.4 1.7-4.9 3.3-7.1 5.2-2.5 2.1-5.5 3.1-8.2 4.9-1.5 1-3.4 1.4-4.9 2.5-1.6 1.1-3.6.1-6 .6 1.2-1.2 1.9-2 3.2-1.9.6.1 1-.1 1.3-.5 1.1-1.7 1.2-.1 1.7.6.8-1 .3-2.2.5-3.1.5-1.7 1.8.5 2.6-.6.5-.7 1.8-1.5 2.6.6.2-.9.4-1.3.3-1.7-.3-1.6-.3-2.7 1.8-1.5.3.2.7-.1 1-.5 1.1-1.3 2.2-2.7 4.2-1.9.3.1.6 0 .7-.3.7-2.5 2.6-3.4 5-3.7 1.1-.2.6-1.5 1.1-2.1v-.4c.7-.4 1.4-.4 2.1-.1z"/>
    <path fill="#FCABBC" d="M66.7 109.5c-1.2.5-1.7 1.6-2.5 2.5h-.4v-1.3c-.3-.3-.2-.8-.4-1.2-.3-1.1.7-2 .3-3.1-.7-1.6-2-2.3-3.7-2.8-2.1-.6-3.5-2.1-4.2-4.3.1-.2.2-.4.3-.5l.4-.4c.2-.7-.1-1-.9-.8-1.9 0-3.8.8-5.8.6-.7-.1-.9.6-1.4.7-1.1-.1-.8-1.2-1.3-1.7.3-1.7.7-1.9 2.4-2.2 1.8-.3 3.5-.4 5.2.4.6.3 1.2-.1 1.5-.5.8-.8 1.7-.4 2.5-.3-.1.9.4 1.8.1 2.7-.7 1.7-.1 2.8 1.7 2.7 1.8-.1 2.8.8 3.9 1.9 2 .7 3.1 2.3 4.3 3.9.6.9-.2.3-.5.3-.4.3-1.5.4-.4 1.3.6-.2 1.1-.7 1.8-.2-.4 1.4-3 .1-2.9 2.3z"/>
    <path fill="#FCDFE5" d="M62.4 118c-1.2.7-1.5 2.1-1.6 3.2-.1 2.2.2 4.4-1.2 6.4-.2.3-.1.9-.2 1.4-.8-.3-1.4-.9-2.3-.8-1.2.1-1.8-.3-2-1.6-.1-.8-.7-1.3-1.6-1.4-.3-.7-.8-1.4.4-1.7 1.1-.1 1.9-1 3-1.1-.7-.3-1.5-.7-2.2-1-1-.1-.7-.7-.4-1.3h1c.8-.1 2 .4 2.1-.8.2-1.1-1-.8-1.7-1-1.1-.3-1.6-1.3-1.8-2.1-.2-.9.8-.9 1.4-1 .5-.1.5-.6.6-1 1.2-.6 2.2-1.8 3.8-1.3.7-.1 1.4-.3 2.1-.4 0 1.4-.1 2.9.4 4.2-.2.4 1.4.8.2 1.3z"/>
    <path fill="#FCCBD4" d="M217.7 28.9c-.2-.1-.4-.1-.6-.2-.4-.4.3-1.5-.8-1.3-.9.1-.5 1-.6 1.5-.1.3-.3.5-.4.7-1.5-1.5-3.1-2.7-5-3.5-2-.9-3.6-2.5-5.4-3.8-.7-.5-.5-.8.1-1 1.2-.3-.1-.6 0-.9 2.4-.7 5.1-.4 7.2-2.1 1.4.8 2.2 2.4 3.8 3 .4.1.7.7.5 1.3-1 .4-1.6.8-.4 1.9.9.8 1.9 1.4 2.9 2 .3.4.3.8 0 1.3-.3.3-.3 1.1-1.3 1.1z"/>
    <path fill="#FCB9C8" d="M183.4 14c.6 1.3 1.1 2.2 2.9 1.8 1.9-.4 4.1 1.4 4.9 3.3.1.2.5.3.7.4-1.3 1.6-2.8 2.6-5.1 2.5-2.5-.1-5.1-.2-7.6-.4-.6-1.5-.5-3 1.1-3.8 1.5-.7.9-1.4.2-2.2.8-.6 1.7-1.3 2.9-1.6z"/>
    <path fill="#FCDFE5" d="M56.1 99.3v.4c1.6.9 1.9 3.2 3.9 3.4 1.9.3 3.1 1.4 4.1 3.1.9 1.4-.8 2.1-.4 3.3-.5.5-1.2-.1-1.7.4-1.3.1-2.8.5-3.8.4-1.7-.3-3.6-.7-5.3-1.5-.4-.2.3-.4.5-.5.6-.5 1.5.1 2.1-.4.4-.1.8-.3 1.4-.4.2.1.3.1.5 0H57c-.3 0-.1-.3-.2-.1 0 .1 0 .1.1 0-.3-1.2-1.5-2-.8-3.6.3-.9-1.7-.5-2.6-.7-.6-.2-1.1-.5-.8-1.3.4-.8.8-1.7 1.3-2.5.7-.3 1.4-.3 2.1 0z"/>
    <path fill="#FCD6DF" d="M60.3 51.3c-1.7.2-3.1.9-4 2.2-.6.9-1 1-2 .4-1.2-.9-2.8 0-4.2-.3-.5-.1-1.2 0-1.8 0-.4 0-1 .5-1.3-.2-.2-.7.5-.6.9-.9.9-.5 1.6-1.1 0-1.6.5-1.3.4-3 2.2-3.6.7-.2 6.3.2 6.3.8.3 2.7 2.3 1.4 3.7 1.6 1.9.3 3.5 1.5 5.5 1.4.4 0 .5.6.6 1-.1 0-.2.1-.3.1-1.8-.4-3.8.2-5.6-.9z"/>
    <path fill="#FC8EA5" d="M132.9 40.3c-3-.6-5.6 1.3-8.3 2-2.8.7-5.9.4-8.5 1.9-1.5.8-3 1.5-4.7 1.6-1.8.1-3.2 1-4.7 1.9-.2-.8-.6-1.5-.2-2.2 1.5-.7 3.2-.1 4.7-.8 2.6-.8 4.9-2.4 7.2-3.8 1.4.3 2.4-.7 3.4-1.2 2.4-1.3 5-1.6 7.6-2.2h5.8c-.4.9-1.4 1.2-1.6 2.1 0 .3-.3.6-.7.7z"/>
    <path fill="#FCCED6" d="M248.7 113.3c-.2-.2-.5-.5-.6-.5-1 .3-1.3 2.5-3.1.6-.7-.8-2 1.1-3.1 1.6-.7.3-1.3.4-2 .4-.5-.6-1.1-1-2-.6-.8.4-1.5-.2-1.6-.9-.2-.8.7-.8 1.3-1 3.3-1.2 7-.6 10.3-2 .9-.4 1.9-.6 2.8-1.3 1.6-1.3 3.6-1.6 5.5-1.9 1.3-.2 2.1.5 2.4 1.8-2.5.7-4.6 2.4-7.2 3-1.1-.6-1.4.6-2.1.8h-.6z"/>
    <path fill="#FCBCCB" d="M187.2 147.2c-.8-.9.1-1.1.6-1.3 2.5-.9 4.7-2.1 6-4.8.8-1.7 2.9-2.1 4.2-3.4 2.2-2.1 4.3-4.3 6.5-6.5.6-.6 1.2-.9 2-.2.9.8 0 1-.4 1.6-1.1 1.5-2.5 2.6-3.3 4.3-1.7 1.2-3.4 2.4-4.9 3.7-2 1.6-4.2 2.8-6.1 4.7-.9 1.2-3.1 1.2-4.6 1.9z"/>
    <path fill="#FCAEBF" d="M144.3 28.4c-1.9.1-2.6 1.8-3.8 2.8-.5.4-.1 1 .1 1.4.3.5.8.1 1.1-.1.8-.8 2 .1 2.7-.8.2-.2.6.1.6.3.1 1.1 1.1 2.2.4 3.2-.6.9-1.9 2.3-2.4 2.1-1.8-.5-3.6.1-5.3-.5-.5-.2-.7-1.3-1.7-.8-.1 0-.1-.7.1-.9.5-.4.8-1.4 1.6-1 .7.4 1.4 1 1.8-.1.3-.7.4-1.5-1-1.5-.6 0-.7-1-.7-1.6.7-.6 1.8-.7 2.1-1.7.4-.3.8-.6 1.3-.8.5-.1.9-.6 1.4-.8.9-.2 1.6-.2 1.7.8z"/>
    <path fill="#FCCBD6" d="M261 90.8c-.6 1.1-1.5 1.6-2.6 1.9-3.5 1-7.2 1.6-10.8 2.5-2.2.5-4.1.4-6.6.3 2.1-1.9 4.2-2.4 6.5-2.2.5-.2 1-.1 1.5-.2 1 0 1.5-.7 2.1-1.2 1.6-1.3 3.5-1.1 5.3-1.1l.4.4c.6-.5 1.5.1 2.1-.4.7-.5 1.4-.5 2.1 0z"/>
    <path fill="#FCAEBF" d="M129.5 37.3c-.8 1-2.2 1.3-3.2 1.3-2.2.2-4 1-5.8 2-.7.4-1.3.8-2 .1 2.7-1.4 5.3-2.8 8-4.2 1-.5 1.9-1.1 2.5-2.2.4-.6.9-1.3 1.8-1.3.6-.3 1.1.6 1.7 0 1.3-.3 1.9-1.9 3.4-1.7.8 1.6.5 2.6-1.3 3.2-1 .3-2.2.4-2.7 1.7-.1.5-.7.3-1.1.2-.7 0-1.1.4-1.3.9z"/>
    <path fill="#FC9AAE" d="M223.3 48.4c.2-1.6-1.9-2-2-3.5 0-.4-.6-.9-.5-1.1.9-1.9.4-3.5-.5-5.2.3-.6.7-.7 1.7-.4.8.5 1.8-.1 2.5.4.7 1 .4 1.8-.4 2.5-.6.9.1 2-.4 3-.8.9-1.3 1.7.4 2.2.8.2 1.1 1.3 2.1 1.2.1.1.1.3 0 .4-.6.3-1.1.6-1.7.8-.4.1-.9.2-1.2-.3z"/>
    <path fill="#FCCED9" d="M83.7 52.6v.4c-.4.2-.8.1-1.1 0-2.2-.5-4.4 0-6.6-.2-.2 0-.4.1-.6.1-1.1-.2-2.1-.4-2.8-1.3 0-.1 0-.2.1-.3 1.1-1.2 3.2-.7 3.6-.4 1.9 1.2 3.9-.1 5.7.5.7.3 1.2.6 1.7 1.2z"/>
    <path fill="#FCDFE5" d="M224.1 41.2c.2-.8.6-1.6.4-2.5h1.2c1.1 0 2 .4 2.1 1.5 0 1.5-1.1 1.2-2.1 1-.5-.1-1 0-1.6 0z"/>
    <path fill="#FCCED9" d="M66.3 52.2c1.6-1.6 3.8-1.3 5.8-1.6.4-.1.5.4.6.8-.4.5-1 .8-1.3 1.4-1.4.6-4.1.3-5.1-.6z"/>
    <path fill="#FCCBD4" d="M62.4 116.7c-.7-1.4-1.4-2.7-.4-4.2h.4c1.5 1.4-.2 2.8 0 4.2z"/>
    <path fill="#FCD9DF" d="M32.7 53.5c-.4-.1-1 .6-1.3-.3-.3-.8-.9-.9-1.6-.5-.1-.4-.5-.8-.1-1.1.5-.3 1.1-.3 1.6 0 .8.3 1.1 1.1 1.4 1.9z"/>
    <path fill="#FCC5D1" d="M36.5 54.3c-1.1 0-3 .7-1.7-1.7.6.1 1.1.3 1.7.4v1.3z"/>
    <path fill="#FCBFCE" d="M141.8 27.6c1.5-.6 3-1.1 3.4 1.3-.4 0-.7-.1-.9-.4-.5-.6-1.1-.9-1.7-.2-.4.5-.8.5-1.3.2.2-.3.3-.6.5-.9z"/>
    <path fill="#FCA5B7" d="M111.2 44.6c-1.4 1.4-3.1.6-4.7.8 1.5-1.1 3.1-.8 4.7-.8z"/>
    <path fill="#FCABBC" d="M44.6 96.3c-.2-1.2 1.6-.2 1.7-1.3v1.7c-.6 0-1.2.2-1.7-.4z"/>
    <path fill="#FCDFE5" d="M222 38.2c-.6.1-1.1.3-1.7.4-1.6-.4-.1-.8 0-1.3.5.3 1.1.6 1.7.9z"/>
    <path fill="#FCB9C8" d="M175.7 19.1h-2.1c1-.4 2-.8 3-1.3-.3.5-.6.9-.9 1.3zM225.8 69.6c-.3.4-.6.8-.8 1.3.1-.9-1-.7-1.3-1.3h2.1z"/>
    <path fill="#FCDFE5" d="M224.5 38.6c-.8-.1-1.8.3-2.5-.4.8.1 1.8-.4 2.5.4z"/>
    <path fill="#FCB9C8" d="M223.7 69.6c-.4-.1-1 .3-1.3-.2-.1-.1.3-.4.4-.6.4.1.7.4.9.8z"/>
    <path fill="#FCD9DF" d="M14.9 72.6c-.2 1-.3 2 0 3-1.9-.7-3.8-1.2-5.9-.4 1.2-.8 1.2-.8 3-.9.6 0 1.3.2 1.6-.6.4-1-1.1-.3-1-1.3.8-.6 1.5.4 2.3.2z"/>
    <path fill="#FCC5D1" d="M24.2 91.7c.6-.4 1.3-.5 2-.4.9 0 1.2-.5 1.4-1.3.3-.9-.2-1.1-.8-1.4-1.4-.7-2.7-1.3-1.1-3.2.4-.5-.1-1.4-.8-1.8-1.5-.9-1.6-2-1-3.5.5-1.3-.1-3.2 2-3.6-.4-2.4 1.9-4.8 1.3-6.3-1.1-2.7.8-4.1 1.3-6 .5-2.5 1.9-4.1 4.9-4.5 1.6-.2 2.6-2.7 4.5-3.6.5-.2.2-.8-.3-.8-.5-.1-.9-.3-1-.9 2 1.3 4.2 1 6.4.9 1.3 0 2 .3 2.6 1.3.4.6 1 1.2 1.5 1.7 1.1 1.1 2 1.1 2.5-.5.5-1.4 1-1.5 2-.5.8.9 1.9 1.2 3 1.3.7 0 1 .4 1.2 1 .1.2 0 .6-.2.7-.5.4-.9-.2-1.3-.3-1.3-.5-2.7-.1-4 .1-.6.1-1 .8-.8 1.5.2.7.7.8 1.3.8.6 0 1.1 0 1.7.2-2.1-.1-4.1.9-6.1.2-1.4-.5-1.8 1-2.8 1.1-1.4.2-1.6 1-1.2 2.3.3 1-.3 1.6-1.3 1.2-.7-.2-1.2 0-1.8.1-1.4.2-1.9.8-.6 1.8 1.5 1.1.7 2.3-.4 2.5-1.9.3-2.2 1.7-2.8 3-.5 1.2-1.1 1.8-2.4 2.1-2.9.8-3.7 4-1.7 6.2.9.9 1.3 1.7.4 2.9s-.3 1.8 1 1.9c1.2.1 2.3.4 3.6 1.2-1.4.8-1.9 2.3-3.4 2.9 1.9.6 4.1-.6 6.2 1.2-2 .3-3.4-.8-5-.3-1.2.4-2.6 0-4 .1-2 .1-3.9-1.1-6-1.3z"/>
    <path fill="#FCC8D4" d="M68.8 54.7c1.5 2.3 3.9 1.3 5.9 1.4.7 0 1.6-.1 1.8.6.2.8-.8 1.1-1.4 1.3-1.1.3-2.1 1.1-3.4.6-1.2-.4-1.8.6-2.4 1.3-.8.9-1.7 1.3-3 .9s-2.7-.8-4.2-.6c-1 .1-1.7-.3-2.3-1.2-.5-.7-.9-1.7-2.1-1-.3.2-.7-.5-.4-1 .6-.9 1.3-1.7 2.4-1.9.9-.2 1.4-.6 1.8-1.3 2.6-1.1 5.7-.8 7.3.9z"/>
    <path fill="#FCA8B9" d="M68.8 54.7c-2.3-1.3-4.8-.7-7.2-.8h-.2c-.9-.1-1.9 1.6-2.6.3-.6-1.2.4-2.2 1.5-2.9 2 .2 4.1-.2 5.9.9 1.2.2 2.5.1 3.7.6.6.3 1 .1 1-.6.6-.3 1.4-.6 2-.1.8.7 2.4.7 2.3 2.3v.3c-2.2-.1-4.3 1.2-6.4 0z"/>
    <path fill="#FC9CB1" d="M82.8 52.6c.3.1.6.3.8.4v.4c-.6 1.3-1.6 1.8-3 1.7-1.8-.2-3.7-.3-5.5-.4-.5-.8-.5-1.6.4-2.1 2.5.5 4.9-.2 7.3 0z"/>
    <path fill="#FCABBC" d="M94.7 51.8c.3 0 .7.1.8-.1 2-1.9 4.5-1.2 6.8-1.6-.9 1-2.4.5-3.4 1.3-1.2 1.5-2.6 1.8-4.2.4z"/>
    <path fill="#FCC8D4" d="M80.1 55.6c.4.1 1.3-.3 1.2.6-.1.9-.6 1.8-1.7 1.9-.8 0-1.4-.6-1.4-1.3 0-1.3 1-1.2 1.9-1.2z"/>
    <path fill="#FCA5B7" d="M93 128.2h-.4c-1.4 1-2.5.5-3.5-.7-1-1.3-.7-2.3 1.2-4.5-1.2-.8-3.1.4-3.9-1.4-.3-.7-.3-1.4.2-2 1.7-.7 1.7-2.4 2.4-3.7.4-.8-.4-1.3-1.1-1.5-2-.7-3.9-2-6.2-1.6-.7.1-1.2-.7-2-.4-.4.3-.8.3-1.3 0-.6.1-1.2.1-1.7-.4v-.8c-.1-.9 0-2-1.5-1.8-.4 0-.8-.1-.7-.7 0-.5-.1-1 .4-1.3.6-.3 1.3-.4 1.9-.9.9-.6 2.3-1 .7-2.3-.5-.4-.1-1.1-.1-1.6-.1-2 .4-4.1-2-5.4-1.5-.8-.8-2.3.3-3.6-1.5-.4-2.3-1.3-2.8-2.5-.5-1.3-.4-2.4 1-3.1.9-.4 1-.9.4-1.6-.3-.3-.6-.7-.5-1.1.3-1.6 0-2.5-1.9-2.8-1-.2-.5-1.3-.1-2.1-.7-.2-1.4 0-2-.3-1.2-.5-1.7-2.6-.6-3.1 1.3-.6 1.5-1.6 2.1-2.5 1.4-2.1 3.4-4 6.1-4.6 1.1-.3 2-.5 2.6-1.5.4-.6.9-.8 1.6-.8 1.6.1 2.7-.5 4-1.5 1.4-1 2.9-1.8 4.4-2.8 1-.7 1.6.4 2.2 1 1.3-1.7 2.4-3.6 5-3.4.7.1 1.4-.3 2-.5.5-.2 1.1-.5 1.5.3.1.7-.3 1.2-.6 1.8-.2.4-.4.8.1 1.1 1.1.6 1.4 1.5.5 2.4-1 .9-2.3 1.6-3.4.6-1.3-1.1-1.4-.3-1.8.6-.8 1.9-1.3 2-3.1.8-.2-.1-.3-.3-.5-.3-.6-.1-4.5 3.3-4.6 3.9-.3 1.5-1.4 1.9-2.4.8-.8-.8-1.2-.8-1.8-.1-.5.6-1.2.9-1.9 1.4-.7.5-1.3 1.1-1 1.9.6 1.8-.4 2.2-1.8 2.6-.4.1-1 .2-1.2.9 1.3-.1 2.7-.3 2.4 1.7-.6 1.4-.9 2.6 1.1 3 1 .2 1.1 1 .5 1.8-.6.7-1.4 1.2-2 1.9-.7.7-1.5 1.6.4 2 1.3.2 1.9 1.1 1.3 2.5-.3.5-.5 1.1.1 1.5.5.4 1 .4 1.6.1.7-.3 1.6-.8 1.9.3.3 1-.2 2-1.2 2.4-.9.3-2.1.1-2.1 1.6 0 1.6-.9 3.3.6 4.8 1.4 1.4 2.1 3.2 2.3 5.1.1 1.2.7 1.8 1.9 1.5.6-.2 1.4-.2 1.4.4.1 2.4 2.3 2.5 3.6 3.5 1.2.8 2.6 1.1 2.9 2.8.1.3.4.6.8.7 2.2.4 3.7 1.8 5.5 3.2.6-1-1.2-2.3.6-2.9 1.3-.4 1.7.7 2.2 1.6 1.8-1.9 3.5-2.8 5.7-.8.9.8 2-.6 3-.3.5.4 1.3.3 1.7.9-.8 2.8-1 2.3-3.3 2.8-2.2.5-4.1 1-6.4.7-1-.1-1 1.7-2.2 2.3-1 .5-2.6 1-2.5 2.7 0 .2-.5.5-.6.4-2.2-1.4-3.5 1.2-5.4 1.1.1-.2.1-.2 0-.2z"/>
    <path fill="#FCABBC" d="M100.6 60.7c-2.1 1-4.8.1-6.6 2.3-.4.6-1 .7-.7 1.6.2.5-.3.8-.7.9-.5.2-.8-.2-.9-.7-.4-1.9-1.2-1.5-2.2-.4-.7.8-1.3 1.5-2.6 1.6-1.6 0-.9 1.8-1.4 2.6-.9-.1-.4-1.1-1.2-1.2-.4 1.3-1.1 1.7-2.4.9-.6-.4-1-.2-1.3.5-.6 1.3-1.5 1.7-3 1.7-1.4-.1-2.3 1.2-3.4 1.9-.9.6-1.4 1.6-2.3 2.1-.5.3-.6.7-.2 1.3.8 1.2.2 1.7-.9 1.4-1.1-.2-1.5 0-1.5 1-.1 1 .3 1.6 1.4 1.7.8 0 1.7-.2 2.4.2 0 .5-.4.6-.7.8-.4.1-.8.5-.5 1.1.2.4.7.4 1.1.3 1.9-.4 2.1.4 1.4 1.9-.4 1 0 1.6.7 2.2.8.8.9 1.5-.4 1.8-1 .2-1.8.8-1.5 1.7.4 1.2.4 2.8 2.2 3 .5.1 1.3-.1 1.4.6.2.7-.6.6-1 .8-.6.5-.9 1.1-.6 1.8.2.6.6 1.2 1.4.8.4-.1.9-.1.9.2-.3 2 1.5 3.7.5 5.7-.4.8-.1 1.2.6 1.4.8.2 1.3.8.6 1.3-1.2.8-2.2 2.7-4.2 1.7.1-2.3-1.1-4.4-1.3-6.7-.1-.8-.7-.7-1.3-.5-1.4.5-2.9.5-4.2 1.2.1-1 .6-1.7 1.2-2.3.3-.4.8-1.1.5-1.3-2-1.5-.5-2.9.2-3.9.9-1.3.9-2.9 1.5-4.2.4-.9.4-1.7-1-1.4-1.1.3-1.8-.1-1.8-1.4-.1-1.6-2-1.4-2.6-2.9-1.3-3.1-4.7-3.7-7.3-5.3-.8-.5-1.7 0-2.5.1s-1.5 0-1.7-.8c-.1-.8.8-.8 1.4-1 .2-.1.6-.2.8-.1 2 1.1 3.8-.9 5.9-.1.9.4 1.1-.8 1.2-1.4.4-2.5 1.7-3.3 4.2-4.2 3.4-1.1 7.3-1.3 10-4.3.7-.7 1.8-.9 2.8-1.2 4.4-1.7 8.9-3.3 13.1-5.4 3.8-1.9 7.7-2.6 11.8-2.7.9 0 1-.5 1.2-1.1.2-.9-.5-1.4-.8-2.1.1-.1.1-.2 0-.3-.2 0-.3.2-.4.3-.8-.1-1.8.2-2-.9-.1-.9.6-1.4 1.4-1.6.8-.2 1.8.1 1.8-1.2 0-1.5-1.6-.2-2-1 1.2-.4 2.1-1.3 3.3-1.8 1.2-.5 2.1-1.4 3.3 0 .3.3.8.1 1.1-.2.6-.6 1.3-.5 1.9 0 .5.4 1.5.6 1.2 1.5-.3 1-1.1.4-1.8.3-1.4-.3-2.4.1-2.8 1.6-.2.9-.6 1.7-1.6 2.1-.6.2-1.2.7-.8 1.3.6.8 1.1 0 1.5-.4.2-.1.3-.3.5-.4.3.2.4.6.5.9.2 1.9-.5 3.2-2.5 3.7-1.4.3-2.8.8-3.8 2-.7.8-1.8.7-2.7.8-.7 0-1.3.3-1.8-.2zM159.2 133.7c-.5.2-1.2.7-1.5.2-.8-1.4-2.3-1.1-3.4-1.7-.2-.1-.4-.4-.5-.6.4-.7.1-1.1-.7-1.3-.9-.2-1.1-.9-1-1.7.5-.4.9-.9 1.3-1.4 1.9-1.8 1.6-4.3-.8-5.5-.5-.3-1.1-.4-1.5-.7-1-.9-2-1-3.2-.3-1.3.8-2.9 1.2-4.4 1.4-.7.1-1.4.3-2-.3.2-.3.6-.5.6-.8 0-.5-.4-.3-.8-.2-.7.2-1.1 0-1.1-.7 0-1.2-.8-1.5-1.7-1.7-.7-2.3 1.2-2.9 2.6-3.3 2.4-.8 4.9-1.5 7.6-.2.4-.7-.7-1.5.1-2.1.7-.4 1.5-.3 2.3-.3 1.4 0 2.8.2 4.1.9.9.6 2 .6 3.1.4 1.1-.2 1.9.1 2.4 1.2.6 1.2 1.7 1.8 3 2.1 1.1.2 2 .7 1.9 2.1-.1 1 .5 1.5 1.4 1.4 1.5-.2 3.1 1.2 4.6-.5.4-.5 1 .2 1.1.8.1.5-.2 1-.2 1.5-.1 1.3.2 2 1.8 1.7 1.6-.3 3.2-.7 4.6-1.5.2-.2.5-.3.8-.3.7 0 1.5.3 2.1-.4 2.8-2.4 6.4-1.7 9.6-2.8 1.3-.3 2.7-.2 3.8-1.2.2-.1.3-.2.5-.2.9.1 1.7-.1 2.3-.9.2-.2.4-.4.7-.6.3-.1.6-.2.9-.1.7 1.8-.8 2.5-1.8 3-2.1 1-4 2.1-5.8 3.5-.6.5-1.3.8-1.6 1.6-.2.5-.5 1.1-1.2 1-.8-.2-.9-.8-.9-1.5 0-.3 0-.6-.4-.8-1.3.8-2.9.9-4.1 2.1-1 1-2.8.8-4.1 1.2-1.4.4-2.6 1-3.8 1.6-.5.3-.9.7-1.6.5-3.7-1.2-7.4.5-11.2-.1-.5-.1-1.6-.2-1.8.7-.2.9.1 1.9.9 2.5.7.5 1.4.9 2 1.5.7.6.6 1.6-.3 1.6-1.7 0-3.4.6-4.7-.8z"/>
    <path fill="#FCA2B4" d="M179.1 123.1c-1.7 1.3-3.9 1.5-5.9 2-1.6.3-1.5-1.3-1.5-2.3-.1-.7.7-1.4.2-2.5-.7 2-1.9 1.7-3.3 1.2-.5-.2-1.1-.3-1.6-.2-1.6.3-2.4-.1-1.9-1.9.3-1.4-.8-1.6-1.6-1.7-1.8-.1-2.8-1-3.4-2.6-.2-.6-.6-.9-1.3-.7-1.7.5-3.2.1-4.8-.8-1.5-.8-3.4-.4-5-.4-.3.4 0 .5.1.8.3.5 1 1 .4 1.6-.5.5-1-.1-1.5-.3-1.8-.8-7.3-.2-8.7 1.2-.4.5-.5 1.3-.8 1.9-1.7-1-2.5 0-3.3 1.4-.8 1.3-.9 1.3-2-.1-.2.5-.2 1.1-.4 1.6-.5 1.3-2.4 1.7-3.8 1.5-1.7-.3-3.4-.5-5.1-.9-.6-.1-1.3-.1-1.5-.9-.2-.4-.4-.7-.8-.8-2 .6-3.9.5-5.6-.8 1.1-1.7 2.8-1.1 4.2-.9 1.7.3 2.8-.1 3.5-1.8.8-2.2 3-2.4 4.8-3 3.2-1.1 6.5-1.2 9.7-1.6.9-.1 1.7-.3 2.4-.8 3.8-2.8 7.7-3.9 12-1.3 1.1.6 2.4.8 3.4 1.6.4.3.9.5 1.4.3 2.9-.8 5.4 1 8.1 1.3.6.1 1 .8 1.4 1.3 1 1.1 2.1 1.7 3.5.8 1-.5 1.6-.4 2.3.5.7.9 1.8 1.3 2.7 2 1.6 1.4 1.7 1.8.4 3.4-.3.4-.9.6-.6 1.2.3.5.8.4 1.3.4.9.1 1.8-.5 2.6.3z"/>
    <path fill="#FCBCCB" d="M128.2 131.1c-.9-.1-.7.8-.8 1.2-.3 1.1-1.3 1.4-1.9 1-1.3-.8-1.5.1-2.1.9-.8 1.1-1.5 2.4-3.4 2.2-.7-.1-1.7.7-2.3 1.6-.4.6-1.2 1.7-2.1.3 2.2.2 1.8-2.4 3.1-3.2.2-.1-1-.8-1.6-.5-1.3.7-2.5.8-3.9.3-.8-.3-1.5.1-2 .8-.3.5-.7 1.1-1.3.8-2.8-1-5.4.7-8.2.7-1.4 0-1-1.1-1.6-1.6-.5-.4-.2-1.1.4-1.4 1.1-.6 2.3-1.1 2.3-2.7 0-.6.6 0 .8-.1 2.2-1.4 5.5-.9 6.8-4 .2-.6.7-1.2 1.6-.4 1.2 1 2.6 1 3.9-.2 1.1-1 2.5-1.3 3.9-1.8 2-.6 3.5-1.4 5.7-.1.9.5 3.2-.1 4.8-.1 1.5 0 3.3.1 4.1 2 .3.8-.1 1.2-.7 1.6-1.8 0-3.2 1.1-4.9 1.6-1.2.3-.3.8-.6 1.1z"/>
    <path fill="#FC9AB1" d="M133.3 128.2c.3-.4.6-.8.8-1.3 1.9-1.2 4.3-1.7 5.5-3.8.3-.8 1-1 1.7-1.3 2.5-.3 5-.7 7.1-2.2.4-.3.8-.4 1.2-.3 2.2.4 5.6 4.1 5.9 6.4v.6c-1.4.4-1.9 2.3-3.6 2.4-1.1-1.9-2.9-1.4-4.4-1.1-3 .5-6.1.3-9.1.7-.2-1 1.2-.7 1.1-1.6-1-.6-1.8-.3-2.7.3-1.2.8-1 1.8-.8 2.9-.6.5-1.2.4-1.8.1v-.4c-.4-.6-1.2-.6-.9-1.4z"/>
    <path fill="#FCABBC" d="M115.9 119.2c1.8.3 3.7.6 5.5.8-.4 1.2-1.2 1.5-2.3 1.2-1.8-.5-3.2-.7-4.2 1.5-.4.9-1.3 1.6-2.6.7-1.1-.8-2 .1-2.8.7-.8.7-1.4 1.8-2.8 1.4-.4 1.4-2.3 2.2-1.2 4.2-1.6-.4-1.8-1.7-2.6-2.4-.4-.4-.8-.9-1.4-.7-.7.3-.4 1-.4 1.5 0 1.6-1.2 1.7-2 1.1-1.7-1.4-3.5-1.1-5.4-.8-.3.1-.5 0-.7-.3 1-.5 2.2-.6 2.8-1.9.4-.9 1.3-.7 1.8.1.3.4.6.6 1 .5.7-.3.5-.7.2-1.2-.2-.4.1-.9.2-.9 1.4.1 1.8-1.6 3.1-1.5.1 0 .4-.3.4-.4-.1-3.1 1.9-1.8 3.2-1.4 1.2.4 2.1.4 3-.7.2-.3.7-.5 1.1-.6 2.2-.3 2.3-.3 3.5-2.2.3-.6 1-.9 1.2-.4.3.9 1 .4 1.4.8.2.4.2.7 0 .9zM86.6 119.7c.1 2.6.3 2.8 2.9 2.3.9-.2 1.3 0 1.6.8.3.7 0 1.4-.7 1.5-1.2.2-1.7.5-1.3 1.9.4 1.4 1.1 2 2.4 2.1.3 0 .7-.1 1-.1-.5 1.1-1 2.2-2.6 1.2-.5-.3-1.6.2-2.4.4-1 .3-2 .5-2.7-.5-.7-1.1-1.5.3-2.4-.2-.1-.9.3-1.9.1-3-.2-1.2 1-1.5 2.1-1.3.7.1 1.3.6 2 .1.3-.2.6-.4.6-.8s-.3-.6-.7-.6c-.9-.1-2.2-.1-2.2-1.1.1-1.2.8-2.5 2.3-2.7zM122.3 120.9c2.1-.1 3.9 1.9 6.2.8.6-.3.6 1.1 1.3 1.1.6-.3.6-1.1 1.1-1.5.6 0 0 1 .8 1 .4-1.1.8-2.3 1.2-3.5.6.2.4.7.6 1.1.2.6.8.8.9 0 .2-1 1-1.4 1.5-2.1 1.4-1.8 1.8-.6 2.4.6.1.9-.1 1.6-1.1 2-1.4.7-2.3 2-2.7 3.5-.4 1.4-1.1 1.4-1.9.4-1.3-1.7-3.2-.8-4.9-1.2-1.8-.4-3.8-.5-5.6-.9-1.1-.2-.2-.8.2-1.3z"/>
    <path fill="#FCABBC" d="M79.8 112.5c3.5-1 6.4.6 9.4 2.1.3.1.6.5.6.8.1 1.5-1.7 2.3-1.4 4 .1.6-1.2.2-1.9.4 0-.3-.1-.6-.4-.6-1.5.2-1.5-.4-.8-1.4.5-.7 1.4-1.2.7-2.1-.6-.9-1.6-.6-2.5-.4-1.3.3-2.3-.1-2.7-1.6 0-.7-.5-1-1-1.2zM74.7 108.6c.2.3.5.5.9.3.7-.3 1.3-.2 1.8.4.6.8-.4 1.2-.5 1.8-.7.8-1.6 1.4-2.4.2-.5-.8-1.5-1.9.2-2.7zM61.1 84.3c-.7 0-.8-.4-.8-.8.1-1 .8-1.5 1.5-1.9.4-.2.9-.3 1.2.1.3.5-.1.8-.5 1-.9.2-.7 1.3-1.4 1.6z"/>
    <path fill="#FCE5E8" d="M67.9 107.4c-.5-.1-1.5.3-1.4-.6.1-1 1.2-.6 1.9-.7-.2.4-.3.8-.5 1.3z"/>
    <path fill="#FCABBC" d="M76.9 112c.6.1 1.3-.2 1.7.4-.2.5-.6.9-1.1.8-.7-.1-.6-.7-.6-1.2zM141.4 121.8c-.6.4-1.1.8-1.7 1.3-.2-1.5.4-1.8 1.7-1.3z"/>
    <path fill="#FCA5B7" d="M105.7 54.3c.1-.6.2-1.1.9-1.1.3 0 .5.3.5.6-.1.5-.6.5-1 .6-.1-.1-.2-.1-.4-.1z"/>
    <path fill="#FCABBC" d="M66 93.9c.4 0 .7.1.7.5 0 .3-.2.6-.5.5-.3-.1-.8-.1-.7-.5-.1-.2.3-.4.5-.5z"/>
    <path fill="#FCBFCB" d="M210.1 125.2c-1.1 1.2-2 3.2-3.3 3.4-2.2.5-4 1.8-6 2.6-3.3 1.1-6.7 1.9-9.5 4.4-1.9 1.7-4.4 2.8-6.6 4.2-1 .6-1.7.1-2.4-.6-1.7-1.8-2.8-1.9-4.9-.1-.3.3-.5.6-.8.2-1.9-2.1-4.5-1.1-6.8-1.4.1-1.1 1.1-.9 1.8-.9 1.9-.2 3.9-.2 5.9-.6 1.3-.2 2.3-.9 3.4-1.3 2.9-1.1 5.9-1.7 8.9-2.1 1.4-.2 2.4-1.2 3.2-2.3.8-1.1 1.7-1.6 3.2-1.3 3.1.5 3.8-.3 4.6-4.5-.9 1-1.7 1.8-2.9 2.1-.7.2-1.3.2-1.8-.3-.6-.6-.5-1.4-.3-2.2.2-.6.6-1.1 1.4-1 1.9.3 2.1-.6 1.4-2-.2-.3-.4-.8-.1-1 2.3-1.5 2-4.8 4.4-6.2.6-.3 1.1-.6 1.7-.8.7-1.1 1.8-1.9 2.9-2.4 2.7-1.2 4.5-3.4 6.2-5.6 1-1.3 2.2-2.3 3.8-2.8 1.5-.5 2.1-1.8 2.3-3.2.1-1.4.8-1.6 2-1.2 2.3 2.1 2.9 4.4.7 7.1-.7.8 0 2.1-.5 3-.3 1.3.2 1.5 1.3 1.1.3-.1.7-.3 1 0 .4.5-.1.7-.3 1.1-.4 1-1.2 1.4-2.1 1.5-2 .2-3 1.5-3.7 3.1-1.9 1.8-3 4-3.8 6.5-.6 1.5-2.3 2.8-4.3 3.5z"/>
    <path fill="#FCE5E8" d="M210.1 125.2c-.5-1.7 1.3-.5 1.7-1.3.9-1.6 2.6-2.6 2.8-4.8.1-1.8 1.7-3.3 3.5-4 3.7-2 7.4-3.3 10.7 1-.7.9-1.7 1.7-3.1 2-.8.2-1.3.6-1.7 1.2-.7.9.5 1.6.6 1.6 1.2-1.3 3.3-.1 4.5-1.6.6-.7 1.4-1.3 2.4-.7.6.3 1.3 0 1.5-.4.9-1.5 2.1-1.2 3.4-1-1.3 1.8-3.8 2.8-5.7 2.3-.4-.1-1.1-.2-.9.3.5 2.2-1.4 2.4-2.5 2.9-6.3 3.2-12.6 6.2-18.9 9.3 1-1.1 1.2-2.8 2.9-3.2.4-.1.6-.7.3-1.1-.3-.4-.7-.3-1.1-.1-.7.4-1.3 1.1-2.2.9 0-1.5 2.7-1.4 1.8-3.3z"/>
    <path fill="#FCC8D4" d="M222 108.2c-.8-2-.1-3.6 1.1-5.2.8-1.1 1-2.2-.6-2.9-1.1-.4-.9-1.3-.9-2.1-.2-.9.6-1 1.1-1.3.9-.6 1.5-1.5 1.9-2.5 2.4-2.1 3.1-4.7 2.9-7.7-.2-2.2-.3-4.3 1-6.3h.8c.7.5.7 1 .3 1.8-.8 1.4-1 2.9-.3 4.5.6 1.5-.5 3.4 1.2 4.6-.9 2.1 1.3 4.8-1.2 6.6-.6.4-.5.9-.3 1.5.3.7.8.2 1.2.2.5-.1 1-.1 1.5-.1.3 0 .7-.1.8.4.1.5 0 .8-.5 1-1.2.4-2.3.8-3.5-.1-.5-.4-1.1-.6-1.5-.1-1.1 1.3-2.7 2.3-3.1 4.1-.5 1.4-1.1 2.6-1.9 3.6z"/>
    <path fill="#FCE2E8" d="M248.7 91.7c-.4.6-.4 1.1 0 1.7-.4.3-.8.3-1.3 0 0-1 .2-1.7 1.3-1.7z"/>
    <path fill="#FC9FB4" d="M179.1 123.1c-1.3-.2-2.5.8-3.7.2-.5-.2-1.2-.1-1.3-.9 0-.6.4-.9.8-1.2 1.9-1.7 1.8-1.6-.1-3.3-.9-.8-2.4-.9-2.9-2.3-.2-.7-.8-.3-1 0-1.9 1.4-3.2.7-4.5-.8-.7-.8-1.1-1.8-2.5-1.1-1 .5-1.4-2.1-2.7-.6-2.7-1.4-6.2-.3-8.6-2.7.6-1.9 2.2-1.2 3.3-.9 1.4.4 2.7.4 4.1.1 2.7-.5 5.3.6 8 .8.8 0 .8.9.8 1.5-.1 1.3.3 1.7 1.6 1.7 1.4 0 2.7.4 4 1.2 1.7 1.1 4.3.4 5.7-1.2.8-1 1.6-1.6 2.9-1.4 1.1.2 1.9-.3 2.4-1.3.6-1.1 1.5-1.4 2.8-1.3 2.9.1 5.2-1 7.1-3.3 2.4-2.9 2.9-6.5 4.3-9.7.6-1.4 1.1-2.6 3-2.1 1 .3 1.3-.6 1.6-1.3 1.1-2.9.4-5.9.3-8.8-.1-1.2-.2-2.2.5-3.2.4-.6.1-1.3.2-1.9.1-2.3-1.3-4.7.1-7 .1-.1.2-.3.2-.4-.7-2.4.5-4.8-.1-7.1-.2-1-.3-1.7.2-2.6 2.3-3.6 1.4-7.7-2.2-9.9-.1-.1-.3-.1-.3-.2-.7-2.6-3.1-3.9-4.4-5.9-1-1.6-2.1-3-2.9-4.7-.5-1.2-1.9-1.8-3.4-1.8-.8 0-1.8.1-1.4-1.3.2-.8-.4-.8-1-.9-5-.6-9.7.7-14.3 2.2-4.2 1.4-8.4 3.1-12.5 4.7-1.3.5-2.5.9-3.9 1-1.7.1-3.2.7-4.8 1.3-2 .8-4.2 1.1-6.3 1.5-.4.1-.9-.1-1.3.1-4.9 2.8-10.7 3.9-15.2 7.7-2.4 2-5.7 2.5-8.8 2.3-1.3-.1-2 0-2.5 1.3-.7 2-2.9 2.2-4.4 2.9-1.6.7-2.8 1.5-3.9 2.7-.2.1-.3.2-.5.3-3.1.3-4.2 3.3-6.5 4.8-.1.1-.3.2-.5.3-3.5 1.4-7 2.6-10.1 5-2 1.5-3.2 3.7-5.2 5.1-1.5 1.1-1.7 2.9-1.6 4.6 0 .1 3.6 3 3.7 2.9.7-.2.9-.8 1.5-1.2 1.1-.7 2.3-1.5 3.2.2 0 .1-.1.2.1.2 2.3.3 3.1 1.9 1.5 4-1.1 1.6-2.1 3.3-3.3 4.8-.2.3-.7.6-.6.8.3 2.1-1.1 3-3.2 3.9 1.8.5 2.1 1.5 2.3 2.8.2 1.5 2.1 2 2.8 3.4.2.3.9 0 1.3-.3.3-.2.6-.8 1-.5.5.3.5.8.5 1.3 0 .4-.1.7-.2 1-.3.8-1.7 1.4-1.1 2.3.7 1.1 1.5 2.3 2.8 2.8.7.3 1.2 1.4 2.2.8.9.7 1.7-.4 2.5-.1.9.2 1.3 1.6 2.5.9 1.6.3 2.9 1.3 4.5 1.3.5 0 .9.3.7 1-.7-.1-1.2.3-1.8.6-.8.4-1.5.4-2.2-.4-1.3-1.4-3-1.1-4 .6-.2.4-.2.8-.8.8-.5 0-.8-.3-.9-.8-.2-.9-.2-1.9-1.5-1.2-1 .5 0 1.1.3 1.6s.5 1.1 0 1.5c-.5.4-.9 0-1.3-.3-1.6-1.5-3.3-2.8-5.6-3.1-.3 0-.8-.5-.7-.6.3-1.9-1.4-2.4-2.4-2.5-1.3-.2-1.5-2.3-3.3-1.5-.6.3-.9-.8-.7-1.4.3-1.2.5-1.8-1.2-1.1-1.3.6-2.3 0-2.3-1.7 0-1.8-.5-3.6-1.8-4.7-1.9-1.7-1.3-3.6-1.1-5.5.1-1.4.3-2.6 2.3-1.9.7.2 1-.6 1.1-1.3.1-.3.4-.7 0-1-.6-.4-1 .1-1.4.5-1 .8-1.7-.1-2.4-.5-.8-.5-.4-1.1.1-1.8.8-1.1.4-2.1-.9-2.1-.5 0-1.5.8-1.5-.1 0-.8-.2-2 .9-2.6.4-.2.9-.4 1-.7.4-.8 3.2-1.7-.3-2.4-1.9-.4-1.1-2-.2-3.1 1-1.6 2-3.4 4.6-2.7-.1-1-1.1-2-.1-2.9 1.4-1.3 1.9 1.2 3.1.7.4-.4.1-.7-.1-.9-1-1.4-.2-2.2 1-2.5 1.7-.4 3.3-1.1 5.2-.9 2.3.2 3.9-1.5 5.4-2.9.7-.7 1.5-1.2 2.5-1.4 2.2-.4 4-1.5 4.9-3.6.7-1.5 1.7-1.9 3.4-2 2.4-.1 4.9-.4 6.3-3 .8-1.5 2.7-1.8 4.2-2.3 1-.4 2-.6 2.1-2 .1-.9.9-1.2 1.8-1.1 4 .6 7.7-.5 11-2.6 2.5-1.6 5.5-2.3 8-3.8 2.8-1.8 5.9-1.4 8.8-2.1 3.4-.8 6.4-2.1 9.5-3.4 2.7-1.2 5.7-1.5 8.5-2.5 3.7-1.3 7.7-1.7 11.4-3 .9-.3 1.6-.9 2.4-1.3.3-.5.8-.4 1.3-.4 2.7.4 5.3 2.1 8.1.2.4-.3 1.2-.3 1.3.2.7 2.8 3.7 1.9 5.2 3.5.3.3 1.3.4 1.3.6-.1 2.1 2.1 2.9 2.5 4.7.1.5.4.7.8.9 2.5 1.3 3.1 2.4 2.7 5.1-.1.4-.1.7.2 1 2.9 2.8 1.5 6.4 2 9.7.1.3-.4.7-.6 1.1-.5.8-.9 1.8-.4 2.4 1.3 1.7.8 2.9-.6 4.1-.4.3-.2.8.1 1.2 1.4 2.4 1.1 5.2 2 7.7.3.9 0 2.2-.4 3.1-1 2.2-.8 4.6-1.5 6.8-.3.9.3 1.6.8 2.3.7 1 .7 1.9-.6 2.3-1 .4-1.2 1.1-1.3 2.1-.2 2.7-.1 5.4-3.1 7-1 .5-1.6 2.1-2.1 3.3-.7 1.6-1.6 3.3-1.6 4.9.1 1.9-1.4 2.6-2 3.9-.1.1-.4.2-.5.2-2.2-1.1-1.3.8-1.4 1.5-.1.5 0 1 .6 1.2.5.1 1-.1 1.3-.5.1-.1.1-.2.2-.4.8-1.4 2.3-2.5 3.6-1.8 1.3.6-1 1.7-.7 2.8-.1.2-.2.3-.4.4-.6.3-1.1.7-1.3 1.3l-.4.4c-.8.5-1.5 1-2.5.8h-.4c-.8 1.7-2.8.7-3.8 1.7-2.2.1-4.1 1.7-6.5 1.1-.9-.2-2.2 1.2-3.2 1.9-.7.6-1.4-.4-2.1 0-.9-.2-1-.1-1.2.1z"/>
    <path fill="#FCB7C5" d="M199.9 115h.4c1 .3 1.6-.8 2.5-.8-.5 1.9-2.7 3.2-2.2 5.5-2.6.4-1.2 1.7-.9 3.1.2 1.1-.9 1.6-2 1.3-.5-.1-1-.6-1.4.2-.3.7-.5 1.4 0 2 .5.6 1.1.3 1.7 0 1-.4 1.7-1.3 2.5-2 .3-.3.6-1 1.2-.4.4.4.1.8-.3 1.1-.3.3-.5.5-.5 1 0 3.3-1.9 4.8-5.2 3.7-.9-.3-1.5-.3-1.8.4-1.4 2.9-4.1 3.3-6.8 3.9-2.1.5-4.1.7-6.2 1.7-3.1 1.5-6.6 1.9-10.1 1.7-.4 0-.9 0-1.1.4-2.1-.6-4.2-1.1-6.3-1.7-.7-.2-1.5-.5-2.2-.4-.7-.7-2-.8-2.1-2.1 1.4.9 3.1-.7 4.5.6 0 0 .3-.2.4-.4.2-.3-.1-.5-.3-.7-.9-.7-2.3-.9-2.8-2-1.3-2.4-.3-4 2.4-3.8 2.8.1 5.7.9 8.4-.5.3-.1.9-.1 1 .1 1.1 1.3 2 .5 3.1-.1 2.1-1.1 4.2-2 6.7-1.8.1 0 .4 0 .4-.1.6-2.1 2.9-1.5 4.1-2.6.3-.3.7-.8 1.3-.4.5.3.5.8.3 1.3s-.5 1.3.3 1.4c.8.2.5-.8.8-1.1 1.3-1.5 3.1-2.5 4.7-3.6 1.4-1 3.4-1 4.5-2.6.3-.4.8-.7.1-1.2-.2-.6.7-.7.9-1.1z"/>
    <path fill="#FCAEBF" d="M224.5 94.2c.8 1.1-.1 1.7-.8 2.2-.7.6-1.5 1.1-2.2 1.6-.7.3-1.4.3-1.2 1.7.1.8-.8 2.6-2.4 3.1-1.8.5-3.4 1.6-4.4 3.3-2.1 3.6-5.8 5.1-9 7.2.2-1.4 1.3-2.3 2.4-2.8 2.3-1.2 4-3.1 5.8-4.8 1.3-1.2 1.8-2.6 1.4-4.5-1.7.7-3.2 1.6-4.2 3.3-1.3 2.3-3.8 3.5-5.7 5.3-.3.3-.8.3-1.2-.1-.4-.3-.4-1-.1-1.1 1.7-.5 1.7-2.2 2.2-3.3.8-1.8 2.7-3.2 2.3-5.6-.2-1.1.7-1.2 1.5-1.2 1.4.1 1.3-.5 1.1-1.7-.4-2.5-.8-5.2 1.4-7.3.3-.3.8-.7.8-.9-.4-2.4 1.5-4.6.5-7-.6-1.5.7-2.3 1.4-3.3s1.3-.1 2-.1c.4 0 1.5 1.5 1.5-.7 0-.9 5.2.4 5.4 1.9.7 4.2 1 8.5-.8 12.6-.5 1.1-1.1 2.1-2 2.9-.4.3-.7.8-1 1.3-.3.4-.5 1 .1 1.3.6.3 1.2.1 1.4-.5.6-2.1 2.1-2.5 3.8-2.8z"/>
    <path fill="#FCB9C8" d="M224.5 70.9c-.2 2 1.6 1.5 2.5 2.1-.5 1.2.2 2.9-1.3 3.8-1.1.1-2.2.8-2.7-1.2-.2-.7-1.8-1.4-3-1.5.2-1 .9-.5 1.3-.7.3-.1.9-.1.8-.5-1.4-3.2 1.4-1.6 2.4-2z"/>
    <path fill="#FCAEBF" d="M228.3 80.2c-.7 2.9-.7 5.8-.5 8.7.1 1.9-1.8 4.7-3.3 5.3.3-1.3.7-2.5 1.5-3.6.8-1.2 1.3-2.7.9-4.4-.6-2.8.2-5.7.1-8.5 1.1-.5 1.1.3 1.3 1 .1.5-.5 1 0 1.5z"/>
    <path fill="#FCC8D4" d="M228.3 80.2c-.8-.1-.5-.6-.5-1 .1-.7.2-1.4-.8-1.5l-.4-.4c2.5.1 2.7.5 1.7 2.9z"/>
    <path fill="#FCABBC" d="M133.3 128.2c.3.4.6.9.8 1.3-1.2.2-2.6-.2-2.8 1.8-.1 1.1-2.5 1-3.2-.2-.4-.3-.7-.6-1.3-1.1 2.5-.4 4.1-2.4 6.5-1.8z"/>
    <path fill="#FC7D97" d="M135.8 129.4c-2.3-1.9.2-2.4 1-3.2 1-1 2.4-.9 3.4.1.5.5.4 1.2-.5 1.4-.5.1-1 0-1.3.5h-.8c-1.1-.3-1.1.9-1.8 1.2z"/>
    <path fill="#FCABBC" d="M135.8 129.4c.1-1.1.5-1.7 1.7-1.3-.9 1.1-1.3 3.1-3.4 1.7.6 0 1.3.2 1.7-.4z"/>
    <path fill="#FCA2B4" d="M183.4 34.4c-1.5 1.5-3.1 2.4-5.3 2.7-2.2.3-4.6.3-6.7 1.7-1.3.9-3.2 1.1-4.7 1.4-3.6.6-6.7 2.4-10.1 3.6-3.1 1.1-6.2 2.1-9.6 1.7-.7-.1-1 .4-1.5.6-2.3 1-4.5 2.2-6.9 3-1.4.5-2.4 1.4-3.6 2.1-3 1.8-6.3 2.2-9.6 3-.4.1-.8-.2-1.2-.4-1.3-.6-2-.1-1.8 1.3.1 1-.4 1.2-1.1 1.4-2.8.5-5 1.8-6.7 4.3-1.1 1.6-3.5 1.2-5.2 1.3-1.5.1-2.2.4-2.9 1.8-1.1 2.4-3.2 3.7-5.9 3.9-1.5.1-1.8 1.7-3 2.4-1.8 1.1-3.2 2.2-5.5 1.8-1.4-.3-2.9.8-4.4 1-.7.1-1.4 1-.2 1.7.7.4 1.4.7.6 1.5-.6.6-1.4 1-2.2.1-.1-.2-.3-.3-.4-.5-.3-.2-.4-1.1-1.1-.5-.5.4-.7 1-.2 1.5.8.8.8 1.5.1 2.6-1.1-1.9-2.1-1.2-3.1 0-.5.5-1 .9-1.6 1.4 0-1.2-.3-1.9-1.6-1.1-.6.3-1.3.4-1.6-.4-.3-.8.6-1 1.1-1.3.4-.2.9-.4 1.4-.5 1.1-.2 1.8-.4 1-1.7-.7-1.1.1-1.7.8-2.3 1.1-.8 2.3-1.3 3-2.5.5-.8 1.5-.2 1.6.4.1 1.3.6 1.2 1.4.9 1.4-.6-.3-.6-.2-1 .1-.4 0-.8.3-.9 2-.7 3.5-2.1 4.9-3.6.6-.7 1 .2 1.2.6.3.6.5 1.2 1.3 1 .8-.2.8-.8 1-1.4.2-.6.5-1.2.8-1.7.5-.6 1-.9 1.2.2.1.7.4 1.3 1.2 1 .8-.3 1.9-.2 2.4-1.2.2-.4.3-1-.2-1-2.6-.5-.9-1.6-.4-2.6.2-.3.3-.6.5-.9.4-.1.8-.3 1.3-.4.2.2.3.5.3.7.1.6-.5 1.5.4 1.9.9.4 1.7-.2 2.3-.8 1.1-1.2 2.5-1.7 4.1-1.8.7 0 1.2-.4 1.7-.8 1.3-1.3 2.6-2.5 4.7-2.5.5 0 1.1-.3 1.2-1 0-.7-.5-1-1.1-1.2-1-.4-2.1-.9-3.3-.4-.5.2-1 .3-1.4-.1v-.8c.5-1 1.8-1 2.3-2 .4-.7.8-.2 1.3.2 1.4 1.1 2.6 2.6 4.5 2.9.6.1 1.3.4 1.6-.2 1.2-2.6 3.6-1.9 5.6-1.9 2.8 0 4.8-1.2 7.2-2.3 3.4-1.5 6.4-4 10.4-4.6 7-.9 13.7-3.1 20.1-6.3 1.9-.9 4.1-.9 6.2-1.4 2.1-.5 4.2-.8 6.1-1.9 1.4-.7 3.1-.5 4.6-1 .7-.4 1.6-1 2.6-.7z"/>
    <path fill="#FCAEBF" d="M132.9 40.3c.2-.4.4-.7.8-.8 2.7-.7 5.4-.6 8.2-.3 1.2.1 2.6-.4 3.8-.7 2.8-.9 5.3-.8 7.7 1.2.9.8.5 1.6 0 1.5-2.2-.3-3.4 2-5.6 2-1.5 0-3.1.3-4.3.8-2 .9-4.2.9-6.2 1.4-3.6 1-6.7 3.4-10.5 4-.7.1-1.4.7-2.1.9-.6.2-1.5.6-1.8-.3-.3-.8.4-1.4 1.1-1.5.9-.2 1.5-.5 2-1.4.2-.4.7-.8.3-1.3-.4-.4-.8-.3-1.4-.2-.9.2-1.9.4-2.9.6-.8.2-1.8.1-2-.7-.2-.9.9-.8 1.4-1.1 2.5-1.8 5.7-1.4 8.2-3 1-.6 2.6.4 3.3-1.1z"/>
    <path fill="#FCBFCE" d="M146 28.4c1-.4 1.7-.2 2.1.8-.7-.2-1.4-.5-2.1-.8zM145.2 28.9c.3-.1.6-.3.8-.4 0 .4.1.9-.3 1-.5.1-.4-.3-.5-.6z"/>
    <path fill="#FCB9C8" d="M182.1 26.2c1-1.1 1.9-1.6 3.2-.3.8.8 1.7 1.2 2.5-.3.7-1.4 2-1.5 3.2-1.1 2.4.8 4.4.2 6.4-1.1 1.2-.8 2.5-1.3 3.7.2.7.9 1.5 1.8 2.8 2.2.6.2.9.7.9 1.5-.1 1.5.3 2.2 2.1 1.5 1.1-.5 2.4.3 3.4.9.8.4 1.6.7 2.4 1.1.9.5 1.9.4 2.2 2.4.3 2.3-.1 5.9 3.7 6.9 1.3.4 1.3 2.2 1.5 3.5.1.8-.7.8-1.2.6-1.5-.4-2.9-.7-4.1.6-.1.1-.3.2-.4.2-1.2-1.4-2.8-.4-4.2-.8-1.6-.4-1.8-1.8-1.2-2.7 1.1-1.6.2-2.5-.5-3.6-.4-.6-1-1-1-1.8 0-.7.8-1.5.1-2-1.2-.8-1.9-2.3-3.3-2.5-1.2-.2-1.4-.7-1.5-1.7-.1-1.5-1-2.1-2.5-1.3-1.7.9-3.3 1.8-5.4.5-2.1-1.3-4.6-.5-6.9-.2-1.6.3-2.8-.9-4.1-1.5-.5-.5-1.1-.8-1.8-1.2z"/>
    <path fill="#FCABBC" d="M64.8 112.4c0 .5-.3.5-.6.5-.2 0-.3-.1-.5-.2.2-.3.3-.6.7-.6.1 0 .3.2.4.3z"/>
    <path fill="#FCBCCB" d="M49.6 96.9c-.3.1-.6.1-.6-.2 0-1 1-.8 1.5-1.1.3-.2.7 0 .8.4.1.5-.3.8-1.7.9z"/>
    <path fill="#FCCED6" d="M197.6 139.7c-.1.1-.3.2-.4.2-.2 0-.4-.1-.3-.3.1-.1.3-.3.4-.3.2 0 .3.1.3.4z"/>
    <path fill="#FCBCCB" d="M82.8 52.6c-2.4.4-4.8 1.1-7.2 0 2.4-.3 4.8-.6 7.2 0zM75.6 52.6c-.4.7-.5 1.4-.4 2.1-1-1.5-2.2-2.8-4.2-2.5.4-.6 1-.8 1.7-.8.8.5 1.8 1 2.9 1.2z"/>
    <path fill="#FC94AB" d="M104.4 114.6c-.8-.1-1.7 1.2-2.5 0-.3-.9.1-1.6 1.5-1.9 1.3-.3 2.4-.7 3.6-1.8-1.6.4-2.9 1.1-4.4.7-1.6-.4-2.7-1.6-2.5-3.1.3-1.6 1.4-2 2.8-1.8.2 0 .4.1.6.1-.2-.1-.4-.1-.6-.1-1.7-.6-3.5-1-3.9-3.2-.2-.8-.8-1.4-1.5-1.7-1.4-.6-1.7-1.3-1.4-2.9.3-1.8.9-2.9 2.5-3.8 1-.6 1-1.6.6-2.6-.7-1.6-.9-3.3.3-4.8.4-.5.5-1.1-.2-1.4-1.5-.5-2.1-2-3.1-3.1-.1-.2-.2-.3-.2-.5-.1.3.3.5.2.8-1.1.9-2.3.3-3.4.1-.8-.2-1.2-.8-.9-1.6.5-1.5 1.1-3 2.6-3.7 1.1-.5 1.8-1.3 2-2.5.2-.8.7-1.5 1.4-1.7 2.6-.8 4.5-2.6 6.7-4 1.8-1.4 4.3-1.8 5.2-4.2.2-.6 1.1-.5 1.6-.9 1.8-.4 3.4-1.2 4.8-2.5 1.4-1.4 3.1-2.4 5.3-1.9 1.1.2 2-.6 3-.7 2-.2 3.6-.5 5.2-2.2 1.3-1.4 3.5-1.9 4.9-3.5.7-.8 1.8-1.7 3.1-.6.2 1-.7 1.1-1.2 1.5-1.7 1-2.7 2.8-4.5 3.7-.5.3-.7 1-.9 1.6-.5 2.2-2.4 2.1-4 2.3-1.3.1-2.7-.2-3 1.8-.2.9-3.6 1.7-4.6 1.2-2.1-1.2-3.7 0-5.2 1.1-1.8 1.4-3.7 2.7-5.8 3.8-2.5 1.3-4.8 3.1-6.1 5.7-.6 1.1-1.2 2-2.4 2.5-.6.3-1 .8-1.6 1.5 1.7-.1 2.8.1 1.4 2.2 2.1-.5 3.6 1.3 5.6.5.8-.3 1.6.7 1.3 1.7-.4 1.4.3 2.5.9 3.6.2.4.4.7 1 .5.5-.2 1-.4 1.2.3.2.7-.2 1.1-.7 1.4-.8.5-1.7.8-2.1 1.7.1.7.9.6 1.2 1 .4.5.9 1.5.4 1.7-1.9 1-1.9 4.4-5.1 3.6.2.4.3.6.4.6 2.4-.5 3.4.8 3 3.7-.4 2.6-.4 2.6.5 5.7.4-.7 0-1.4.1-2.1.1-.7.5-1.2 1.1-1.4.5-.2 1.1-.1 1.3.4.7 1.5 1.8 1 2.9.8 1.3-.2 2.5-.6 3.3.9.2.4.7.5 1.1.4.5-.1 1.1-.3 1.4.1 1.7 1.5 3.2 1 4.7-.2.2-.1.4-.2.6-.2 3.8-.1 7-2.1 10.3-3.5 2.2-.9 4.6-1.4 6.8-2.4 1.1-.5 2.3-.7 2.6 1 .2 1.1.8.9 1.6.8 1.7-.1 3.5-.3 4 2 1.9-1.3 3.5-.7 4.8 2-.9 2.2-1.8 2.6-3.9 1.9-1.2-.4-2.2-1.2-3.3-1.8-.9-.5-1.9-.8-2.4.6-.1.3-.4.8-.6.8-1.7-.5-3 .6-4.4 1-.9.3-1.8.1-2.6.9-.4.4-.9.3-1.4.2-2-.6-3.9-.3-5.7.8-.7.4-1.6.6-2.4 0-.8-.6-.3-1.4-.2-2.2-.3.7-.7.8-1.2.8-.8-.1-.9.3-1 1-.4 1.8-1 2-2.5 1.1l-.9-.6c-.5-.3-1-.6-1.5-.2-.5.4-.5.9-.5 1.5.1 2.1-1.7 5.2-3.4 5.9-1 .8-1.5-1.4-2.5-.4-.5.2-1.2.7-1.3-.4-1-.9-2.5-.4-3.7-1.2-.5-.3-1.2-.6-1.8-.9-1.2-.1-1.7-1-2.4-1.3z"/>
    <path fill="#FCABBC" d="M96.7 123.3c.8-.4 1.6-.8 2.4-1.1.4-.2.8-.4 1.1 0 .2.2.3.5.2.7-.2.5-.5 1-1.1.8-.8-.3-1.7-.1-2.6-.4z"/>
    <path fill="#FC9FB4" d="M81.8 108.6c-.1-.4-.3-.7-.3-.9.2-.8-1.7-1.7-.3-2.1 1-.3.6 1.4 1.1 2.1.1.2 0 .5-.5.9zM95.2 118.6c.4.1.6.3.7.7 0 .3-.1.6-.4.6-.4 0-.6-.3-.6-.7-.2-.3-.1-.6.3-.6zM93.4 120.6c-.3.1-.5.2-.7.2-.3-.1-.6-.4-.4-.8 0-.1.4-.1.5-.1.3.1.4.4.6.7z"/>
    <path fill="#FCABBC" d="M93.3 126c-.1.3-.4.4-.6.3-.2-.1-.3-.3-.3-.4 0-.3.2-.5.5-.5.2.1.4.3.4.6zM73.4 76.9c-.1-.2-.2-.4-.2-.5 0-.2.3-.3.4-.2.1.1.1.4.2.6 0 0-.2.1-.4.1z"/>
    <path fill="#FCA5B7" d="M110.8 54.3c1.6-.9 3.3-.7 4.9 0 .8.3 1.7.8 1.7 1.7 0 1-1.2 1.7-2 1.6-2-.3-3.1 1-4.3 2.2-.8.8-1.5 1.2-2.7 1.1-.9 0-2.1-.1-2.6 1.3-.2.5-1 .7-1.6 1-.8.6-1.7.7-2.4.2-.8-.5-.3-1.4-.1-2.1.1-.3.1-.7.1-1 1.5.1 2.8.1 3.6-1.7.3-.7 1.9-1 3-1.1 2.3-.2 2.5-1.5 2.4-3.2z"/>
    <path fill="#FCA2B4" d="M191.4 119.7c.9-1.5 2.9-.4 3.8-1.7-.5 2.1-2.5 1-3.8 1.7zM195.7 118c.8-.3 1.7-.6 2.5-.8-.7.7-1.3 1.6-2.5.8zM179.5 122.6c.7-.9 1.4.1 2.1 0-.6.8-1.3.3-2.1 0zM199.9 115c.1.7-.6.8-.8 1.3l-.4.4c-.1-.9.1-1.6 1.2-1.7z"/>
    <path fill="#FC97AE" d="M137.5 53.5c-1.4-.4-2.7.4-3.3 1.3-.8 1.4-2 1.9-3.3 2.4-1.1.5-2.4.7-2.5 2.5 0 1-.9 1.2-1.7.6-.6-.5-1.3-.6-2-.3-1.7.8-3.3 1.1-5.3.8-1.4-.2-2.6 1.4-3.7 2.4-1.3 1.1-2.6 2.5-4.6 1.6 1.3-3.1 4.7-3.1 7.1-4.6.7-.4 1.2-.4 1.3-1.5.1-1.3 1.2-1.8 2.5-1.5 3.4.6 6.4-.3 9.2-2.2 3.2-2.2 6.5-4.3 10.3-5.4.7-.2 1.8-.1 2.2-.5 2-2.4 5-2 7.4-2.5 2.9-.7 5.6-1.9 8.7-2.3 3.5-.5 7-1.9 10.2-3.8.6-.4 1.1-.8 1.9-.4.4.2.8.1 1.2-.1 3.9-2.4 8.3-3.2 12.8-3.5 1.4-.1 2.8.4 4.2 0 .5-.1 1 0 1.3.5.5.9-.7 1.1-.7 2 2.5-1.1 3.9 1 5.7 1.9.4.2.2.6.1.9-.1.3-.2.9 0 1 1.8 1 1.7 3.7 3.8 4.5.2.1.5.2.5.3 1.4 2.9 4 4.7 5.9 7.2.5.6 0 1.4 0 2 .1 1.9.8 4-1.2 5.5-.2.2-.5.6-.5.7 2.3 2.1-1 4.8.8 7.1.6.7-.2 1.9-.8 2.7-.6.8-.8 1.4-.1 2.3.6.7.7 1.7.1 2.5-.2.3-.6.7-.2.9 2.1 1.1.7 2.1 0 3.1-.4.6-.6 1.2-.3 1.8.9 2.4.1 4.9.6 7.3.2 1.2-.7 2.6-1.3 3.9-.3.6-.9.9-1.6.4-1.4-1.1-2.1 0-2.2 1-.4 2.3-2.1 4.2-2 6.7 0 1.1-1.6 2.1-2.2 3.3-1.4 2.9-4.2 3.4-6.8 4.2-.5.2-.8 0-1.2-.2-1.1-.6-1.9 0-2.2.9-.6 1.8-1.8 2.1-3.3 1.6-.9-.3-1.4.1-1.7.8-.7 1.1-1.3 2-2.8 2.1-1.3.1-3-.2-4.2-.7-1.4-.7-2.9-1-4.5-.8-.6.1-1.3.2-1-.8.6-2.1-.6-2.9-2.4-2.8-2.6.1-5.1-1.3-7.7.1-1 .5-2.3-1-3.7-.9-.8.1-1.3.1-1.8.7-2-.3-3.6-1.8-5.7-1.6-.4 0-.8 0-1.2.2-2.9 1.7-5.7 3.8-9.1 4-2.6.1-5.1.5-7.6 1.2-2.2.6-4.4.9-5.2 3.6-.4 1.3-1.5 1.8-2.9 1.4-1.6-.5-3.3-.6-4.9.1v-.8c1.9-1.1 1.8-3.4 3.1-4.9.3-.3-.9-1.5-.1-2.4.7-.9 1.4-1.7 2.5-.5.3.3.8.6 1.2.9.4.3.7.8 1.3.3.5-.3.4-.8.3-1.3-.4-1.5.2-1.8 1.5-1.2.4.2.6 0 .9-.2.3-.2-.6-1.2.5-.8.6.2.4.7.2 1.3-.7 1.9.3 1.8 1.6 1.3 1.4-.5 2.5-1.6 4.2-1.4.6.1 1.1 0 1.7.3.8.4 1.6.6 2-.6.1-.3.4-.7.5-.7 1.8 1.1 2.8-.4 4-1.3.1-.1.3-.1.4-.1 1.8 1.8 2 .6 2.5-1.1.2-.6 1.8-.3 2.7.3.8.5 1.5 1.1 2.3 1.5 1.7 1 3.3 1.1 4.5-.9.2-.1.4-.2.6-.1 1.2.7 2.3.9 3.8.7 2.9-.3 5.8.1 8.6-.1 1.1-.1 1.7.8 2.1 1.8.4 1.1 1 1.4 2.2.9 1.6-.6 3.4-1.5 4.8.8.7 1.1 4.2.4 4.9-.8.1-.1.1-.3.2-.4 3.2-1.1 4-6 8.4-5 1.3.3 3-1.7 3.2-3.4.2-1.6 1.1-2.7 2.3-3.4 1.2-.7 2.2-1.3 2.5-2.9.1-.8.8-1.5 1.4-2.1.5-.5 1-1.1 1.6-1.3 1.1-.4 1.8-.8 1.3-2.2-.2-.5.1-1.1.5-1.5 1.1-1.1 1.1-2.3.8-3.7v-1c.3-1.3.2-2.6-.1-4-.5-2.4-.2-4.9-.8-7.3-.7-2.5.4-4.4 1.5-6.6 1-1.9.8-4.5.8-6.8-.1-.2-.1-.4-.1-.6.2-.9-.1-1.4-1.1-1.4-.6-.3-1-.7-1-1.4.5-.9.4-1.5-.8-1.5-.2-.1-.4-.1-.6-.2-1.3-.9-2.9-1.6-3.6-3.2-.2-.4-.6-.6-1-.7-1.3-.3-1.8-1.2-1.9-2.5-.1-1-.4-1.9-1.2-2.6-1.1-.9-2.2-1.7-2.1-3.4 0-.9-3.5-2.9-4.5-2.5-3.4 1.3-7.1.7-10.6 1.3-.7.2-1.4.4-1.8.9-1.7 2.2-4.1 2.6-6.6 3.1-.9.1-1.8.2-2.5.7-.2.1-.4.1-.6.2-2.4.5-4.8.8-6.8 2.4-.4.3-.9.5-1.4.3-1-.6-1.5.4-2.2.8-.2.1-.3.2-.5.3-.7.2-1.4.6-2.2.7h-.6c-1.4-.2-2.7-.3-3.7.9-.5.4-1.1.8-1.8 1-.7.2-1.3.1-2 .3-.2.1-.4.1-.5.2-1.7.2-3.2 1-4.7 1.9 0 .3-.2.2-.4.1z"/>
    <path fill="#FCE5EB" d="M123.7 130.9c.1.1.2.3.2.4 0 .4-.3.6-.7.5-.1 0-.2-.3-.1-.5 0-.2.1-.4.6-.4z"/>
    <path fill="#FC9FB4" d="M213 117.1c-1.1.1-2.3-1.4-1.6-2 2.3-1.7 3.8-4.4 6.5-5.5.6-.2 1.4-.6 1.4.8-.1 2.1-4.2 6.6-6.3 6.7z"/>
    <path fill="#FC97AE" d="M96 83.2c1.7.6 2.2 2.8 4.2 3.1.8.1.3 1.1-.2 1.5-1.4 1.4-1.3 2.9-.4 4.5s.4 2.8-1.2 3.7c-1 .5-2.4.9-1.3 2.5-2.2 2.4.5 2.7 1.6 3.7.4.3.8.6.9 1.1.2 2.2 2.2 2.5 3.6 3.3.1.1.1.2.1.3 0 .1-.1.1-.1.1-1.4 0-2.8.2-2.6 2.1.2 1.9 1.8 2.7 3.8 2.1.7-.2 1.4-.5 2.1-.8.4-.2.7-.6 1.1-.1.4.5.1 1-.3 1.3-1.1.6-1.9 1.7-3.5 1.6-.8 0-1.8.3-1.9 1.5-.3.3-.3 1.3-.9.9-1.7-1.3-3.4-2.7-4.9-4.2-.5-.5-.4-1.6.4-2 1.2-.7 1.2-1.6 1-2.7-1.8 1.8-2.6 1.7-3.5-.5-.1-.2-.3-.6-.5-.6-1.7-.2-2.1-1-1.6-2.6.2-.5-.1-1.3-1-1.2-.5.1-1 .4-1.2-.3-.2-.7.3-1.1.8-1.4.5-.3 1-.5 1.5-.7.5-.2 1.1-.6.9-1-1-1.6.8-2.1 1.1-3.1.7-2.1 2.9-3.1 3.4-5.3.2-.9.6-1.9-.6-2.3-1.6-.7-.2 1.5-1.4 1.4 0 0-.2-.1-.2-.2-.1-.8.6-1.8-.6-2.2-.9-.3-1.6.4-2.2.9-1.8 1.7-1.8 1.8-3.1-.5-.3-.5-.7-.7-1.2-.5-1.7.8-1.5-.4-1.5-1.4 0-2.6 1.1-4.4 3.1-6.2 1.6-1.5 3.5-3 4.9-4.8.8-1 2.1-1.3 3.1-1.6 2.3-.6 4-3 6.7-2.4-1.4 1.9-3.1 3.4-5.6 4-1 .2-2 .8-2.1 2.3 0 1.1-.6 1.9-1.9 2.2-2 .5-2.1 2.5-2.9 3.9-.2.3.3.7.6.7 1.2-.1 2.3.5 3.5-.1zM111.2 64.9c-.8.7-1.3 1.8-1.9 2.5-1.2 1.3-2.8 2.5-4.9 2.6 2-2 3.2-5.1 6.8-5.1zM104.4 114.6c.7.3 1.4.6 2.1.8-1.3 1.5-1.4-.4-2.1-.8z"/>
    <path fill="#FCA2B4" d="M192.5 111.4c.3.7 0 1-.4 1.3-.1.1-.4-.1-.5-.2 0-.6.3-.8.9-1.1z"/>
    <path fill="#FCA5B7" d="M91.7 69.2c.3 0 .6 0 .7.4 0 .4-.2.6-.6.7-.3 0-.6-.1-.6-.4-.1-.5.2-.6.5-.7z"/>
    <path fill="#FC8BA2" d="M154.1 106.9h-.4c-.5-.5-.9-1.1-1.4-1.6-.6-.5-1.2-1-2.1-.9-1.1.2-.3 1.3-.7 1.8-.5-.1-.6-.5-.8-.8-.9-2.4-1.8-2.9-4.3-2-1.3.5-1.5 0-1.4-1.1.1-1.3-.5-1.7-1.6-1.1-1.4.7-3.3 1.6-4.4 1.5-1.6-.2-1.6 1.8-3.2 1.3-1.2-.3-2.7.7-4 1.6-.9.6-1.9 1-3.3 1-1.5 0-3.2.3-4.5 1.5-.8.8-6.3-.5-6.7-1.6-.3-.8-.9-.6-1.4-.5-.9.1-1.8.2-2.7.4-.9.2-1.9.6-1.8-1 0-.4-.3-.7-.7-.6-.5 0-.9.4-1.1.9-.1.2.1.5.1.8.1 1 .4 2.5-.6 2.7-1.2.2-.5-1.5-.9-2.2-1.3-2.1.5-4.4-.4-6.5-.2-.5.7-1.5-.4-1.8-.9-.2-1.5.5-1.8 1.3-.7-.3-.3-.8-.4-1.1-.5-1.2-.5-1.2.6-1.3 2.2-.2 2.8-1 2.8-3.4.7-.4.8.7 1.5.5.1-1 0-1.9-1.4-1.9-1.2.1-1.3-.4-.6-1.2.6-.7 1.1-1.6 2.2-1.8.5-.1 1.1-.3 1-1.3l-2 1c.2-1.2-.5-1.9-1-2.7-.5-.8-.9-1.4-.3-2.3.3-.5.3-.9-.2-1.3s-.9-.4-1.3-.1c-.9.6-1.6.8-2.4-.3-.2-.3-.9-.4-1.4-.3-.6.1-1.2 1-1.7 0-.5-.9.6-1.3 1-1.8-.5-.7-1 0-1.4-.1-.5-.1-1.1.2-1.3-.4-.2-.7.5-.7.9-.9 2.1-1.2 3.7-3.1 4.9-5.1 1.5-2.6 3.9-3.4 6.2-4.8 1.5-.9 3.1-1.7 4.3-3.1 1.3-1.5 3.7-2.7 5-1.8 1.7 1.1 2.8 0 4.1.1.6 0 1.1-.2.9-1-.4-1.4.5-1.5 1.5-1.5 1.2 0 2.4-.1 3.6-.3 1.1-.1 1.7-.7 1.6-1.8 1.6-.1 2.7-.9 3.5-2.3.2-.4.5-.8.9-.9 4-1.2 7-4.4 11.4-4.8 2.4-.2 4.6-1.8 7.1-1.5.8.1 1.8-.2 2.6-.7 3.1-2.2 6.8-2.6 10.3-3.4.8-.2 1.5-.2 2.2.3.2 1.6-1.2 1.6-2.1 1.9l-.9.3c-4 2.3-8.4 3.2-12.9 3.8-.9.1-1.3.7-1.8 1.4-1.1 1.4-2.4 2.3-4.3 2.3-2 0-3.8 1-5.1 2.3-1.4 1.4-2.9 2.2-4.7 2.6-1.5.4-2.9 1.1-3.7 2.6-.4.9-1.3 1.4-2.2 1.6-2.2.6-4.2 2.1-6.7 1.2-.7-.3-1.4.2-1.6 1-.6 1.8-1.9 2-3.4 1.3-1.3-.6-2.4-.4-3.4.7-1.6 1.6-4 1.4-5.8 2.8-.8.6-1.6 1.1-2.2 1.9-.6.7-.8 1.4.2 1.9.3.2.7.5.6.8-.4 2-.2 4-.3 6-.1 1.4 0 2.4 1.4 2.6h.6c2.4.3 3 1.3 2.3 3.5.5.3.9.3 1.4.1.9-.2 1.9-1.2 2.6 0 1 1.6 2.4 3.2 1.6 5.2-.7 1.7-1.3 3.9-4 4.1 2.6 1.6 4.6-1.5 6.8-.4 0 1.1-1.8 1.5-1.1 2.4.7.9 1.8-.2 2.7-.5.7-.2 1.4-.4 2-.6 1.4-.5 2.5-.4 3.2 1 .5 1 1.1 1.1 1.9.2 2.2-2.2 5.5-2.3 8.1-3.8.9-.6 2-.2 2.3.8.7 1.7 2 2 3.4 1.7 3-.7 5.4.5 7.8 1.9.9.5 1.8.9 2.8.4 2-.8 3.6-.1 5 1.3.7.8 1.4.9 2.4.7 2-.4 4-.2 6.1.2 2.2.5 4.4 1.1 6.3-.8.5-.5 1.3-.6 1.9-.8 1.7-.6 2.3-.2 2.8 1.5.1.4 0 .9.5 1 .7.1.8-.5.9-1 .4-1.3 1.2-1.9 2.5-1.8 1.1.1 1.7-.4 2.1-1.4.7-1.9 2-3.2 3.9-3.9 1.1-.4 1.5-1 1-2.3-.7-1.9.8-3.5 1.3-5.2.3-.9.8-1.8 1.5-2.5 2.3-2.2 2.9-5.4 3.7-8.1.5-1.8.3-4.1.3-6.2 0-2.7.8-5 2.9-6.8 1.8.1 2.2.6 1.9 2-.1.6-.3 1.3-.6 1.8-.4.9-1.2 1.7.1 2.6.5.4.2 1.2-.1 1.8-.4.7-.4 1.4-.1 2.2 1.6 3.6 1.6 3.6-.8 6.6.4.4.9.1 1.4.2.7.1 1.2.5 1.2 1.2 0 .8-.6 1.1-1.3 1.1-1.8.1-2.9.9-3.1 2.8-.1 1.2-1 2-2.2 2.4-2.2.8-2.3 1.1-1.4 3.1.7 1.6-.3 2.6-1.4 3.4-1.2.8-2.2 1.7-2.6 3.2-.1.3.1.1-.1.2-2.1 1-3.5 2.9-4.9 4.7-1.4 1.8-3.9 2.2-5.5 3.9-.8.8-2.4.9-3.6.6-1.2-.3-.6-1.3-.2-2.3-4.1 1.3-8.1-.1-12.1 0-2 0-4.3.3-6.3-1-.7-1-1.8.6-3.1.8z"/>
    <path fill="#FC94AB" d="M154.1 106.9c1.7-2 2.9-2.2 5.1-1 .2.1.6.5.7.4 1.8-1.1 3.4.4 5.1.2 1.8-.1 3.5-.2 5.3.2 2.3.5 4.8.1 7.3.1 0 .5-.6.6-1 1-.3.3-.3.6-.1.9.5.5 3.8-.2 3.7-.9 0-.7.2-1.1.7-1 2.5.6 3-2.8 5.2-2.7.3 0 .7-.5.5-.8-1.1-2.3 1.2-2.6 2-2.6 1.4 0 1.7-.7 1.8-1.5.2-1.4.8-2.1 2.1-2.6.8-.3 1.3-1.1 1.7-1.8.2-.3.5-.8.1-1.4-1.5-1.9-1-3.1 1.4-3.7 1.2-.3 2.1-1 2-2.3 0-2.3 1.4-2.9 3.3-2.9.6 0 1.2.2 1.1-.7-.1-.8-.7-.7-1.3-.6-.6 0-1.3.3-1.9-.4.4-.5.7-1 1.2-1.5 1.6-1.5 2-2.9.3-4.7-.6-.6-1.3-1.8-.4-2.8.4-.5.9-.9.5-1.7-.4-1-1.3-.6-2.4-.7 1.7-1 2.1-2.4 2.6-3.8.5-1.5.2-2-1.2-2.1-.2-.3-.3-.5-.2-.9.1-.1.1-.2.2-.3.7-.8 2.1-.5 2.4-1.5.3-1-.8-1.7-1.2-2.6-.5-1.4.6-1.7 1.3-2.3-.3-.7-1.2-.7-1.4-1.5-.1-.9-.8-1-1.6-1-.6 0-1.4 0-1.7-.6-.9-1.7-2.3-1.5-3.8-1-.6.2-1.2.4-1.8.1-1.6-.7-1.9-2.6-.4-3.6 1-.6.7-1 .2-1.8-1.3-2-3.6-3-4.7-5.3-.5-1-1.6-1.8-3.1-1.1-.2.1-.6.2-.8 0-3-2-5.6.3-8.4.8-1.1.2-1.9.8-2.6 1.7-.6.9-1.7 1.3-2.7 1.7-.3.1-.5.2-.9.2-4.4.5-8.7 1-12.5 3.7-.8.6-2 .8-2.9.8-4.2-.3-7.7 2.3-11.7 2.6-2.1.2-2.4 2.4-3.9 2.9-1.4.5-3.1.2-3.9 2.1-.6 1.2-1.7 2.3-3.3 1.1 1.7-2.9 4.6-4.5 7.2-6.4h.4c1.6-1.1 3.3-1.6 5.1-2.1.6-.5 1.5.1 2.1-.4.6-.3 1.1-.6 1.7-.8 1.3-.9 2.7-1.4 4.2-.8 1 .2 1.7-.7 2.5-.8.6-.4 1.2-.9 1.9-.6 1 .3 1.5-.3 2.3-.7.8-.4 1.8-1.9 2.7-.1h.1c.8-1.8 2.5-1.8 4-2.3.8-.5 1.7-.5 2.5-.8 3.5-.1 5.8-2.6 8.5-4.2.2.1.4.3.6.3 2.1-.4 4.3.3 6.3-.3 2.6-.7 4.8.1 7.2.8 1 .3 1.7.8 1.4 1.9-.2.7.2 1 .7 1.4 1.6 1.1 2.9 2.5 2.8 4.7 0 .4.1 1 .4 1.1 2.5.7 3.7 3.3 6.1 4.1h.4c.8.3 1.5.7.8 1.7 0 .6.3 1 .8 1.3.8.3 1 1 1.3 1.7.7 2-.5 4-.3 6 0 .3-.1.6-.4.7-1.5.4-1.1 1.8-1.6 2.8-1 2.3.3 4.3.1 6.5-.3 3.2 1.7 6.2.8 9.4v.8c.3 1.9-.8 3.1-2.1 4.2-.7.6-1.6 1-.8 2.3.6 1-1 1.5-1.3 2.4-.5 1.2-2 2-1.5 3.7.2.6-.7.6-1.1.7-1.9.8-3.4 1.8-3.4 4.2 0 1.5-2.6 3.1-4.2 3.3-1.8.3-4.6-.6-4.5 2.9 0 .3-.7 1-1 1-1.8-.4-2.2.9-2.8 2.1-.3.7-1 1.2-1.9.6-.7-.5-1.5.1-2.3 0-.5-.1-1.3.2-1.5-.5-.7-3.2-3.2-1.3-3.9-.8-1.7 1.1-2.3.5-2.7-.9-.5-2-1.6-2.1-3.4-1.8-2.2.3-4.6-.4-6.8-.1-.9.3-2.3.7-3.4-1z"/>
    <path fill="#FC97AE" d="M116.4 113.2c0 .4-.1 1-.1 1.6-.1.8-.8 1.1-1.5 1.3-.8.3-1.2-.4-1.4-.9-.4-1.2-1.4-1.9-2.3-2.6-.7-.5-.9-1.2-.7-2.1.1-.4.4-.6.8-.5.8.3 1.2.8 1.3 1.7.2 2.6 1.5.8 2.4.5.4-.1.7-.8 1.3-.4.4.3.5.7.2 1.4z"/>
    <path fill="#FC8BA2" d="M103.2 106.9v-.4c.6-.4 1.1-.2 1.4.4.2.3 0 .6-.3.7-.7.3-.9-.2-1.1-.7zM96 83.2c-.4-.4-1.4-.3-1-1.2.1-.2.5-.4.7-.3.9.2.2.9.3 1.5zM105.6 89.8c-.1.1-.3.4-.5.4-.5.1-.6-.3-.5-.7 0-.3 0-.6.4-.5.2.1.6.2.6.8zM112.6 108.1c.1.1.3.2.4.3-.3.2-.5.4-.8.5-.2.1-.4-.1-.4-.3 0-.4.3-.6.8-.5z"/>
    <path fill="#FC97AE" d="M102.7 93.2c-.2-.2-.5-.3-.5-.4-.1-.4.3-.6.6-.7.1 0 .3.1.5.2l-.6.9z"/>
    <path fill="#FC94AB" d="M201.2 53.5c-1.6-.6-3.3-1.2-4.2-2.8-.3-.5-.7-.6-1.2-.6-.8 0-1.4-.5-1.3-1.3.2-2.4-1.3-3.7-2.9-5-.4-.3-1-.6-.7-1.1.7-1.8-.7-1.9-1.7-2.2-3.9-1.1-7.8-1.1-11.8-.3-.8.1-1.2-.1-1.5-.7 3.7-.3 7.4.1 10.9-1.3.9-.4 1.8-.3 2.3.8.2.5.7.7 1.2.7.9.1 1.7.9 1.6 1.4-.5 1.8.9 2.3 1.7 3.1.3.3.8.6.8.9 0 2.7 2.2 4 3.7 5.7.8 1.1 2.3 1.4 3.1 2.7zM203.3 83.6c.1-2.1-.1-4.1-1-5.9-.7-1.4.6-2.9-.2-4.3-1.4-2.6.5-5.4-.3-8-.2-.8.5-.8 1.1-.6 1 .3 1.3-.3 1.3-1.1-.1-1.8.7-3.6.4-5.4.3 3.1.8 6.1-1.3 8.9-.7 1-1 2.3-.8 4 .2 1.9 1.4 3.8.6 5.8-.4 1 .3 1.9.4 2.8.2 1.3.6 2.6-.2 3.8zM199.1 93.4c-.1-1 2.1-1.9.1-3.2-.5-.3.3-1 .9-1.4 1.8-1 2.8-2.4 3.3-4.4.7 1 .7 2.1.1 2.9-.9 1.2-1.8 2.1-.9 3.7.3.4-.2.5-.6.6-1.3.2-2 1.2-2.9 1.8zM164.7 44.6c-1.9.2-2.8 2.3-5.2 2.2-1.7 0-3.7 1.6-5.8 1.6.5-.5.9-1 1.4-1.5.2-.2.6-.4.6-.4 1.5 2.1 2.3-.2 3.2-.6 1.9-.9 3.8-1.2 5.8-1.3zM143.1 51.3l-5.1 2.1c1.3-1.5 3.1-1.9 5.1-2.1zM151.1 49.2c-1.5-.2-2.8.6-4.2.8 1.1-1.8 2.6-1.4 4.2-.8zM204.6 58.1c-.4-.6-.8-1.1-1.3-1.7 1.9-.5 1.7.5 1.3 1.7zM153.7 48.4c-.8.5-1.4 1.5-2.5.8.7-.3 1.5-.9 2.5-.8zM202.5 55.2c.2-.8-.4-1.2-.8-1.7 1.3 0 2 .4.8 1.7zM167.2 43.7c-.7.6-1.6.8-2.5.8.7-.8 1.6-.8 2.5-.8zM145.2 50.9c-.6.7-1.4.3-2.1.4.5-.7 1.4-.3 2.1-.4z"/>
    <path fill="#FC829C" d="M165.5 48.4l.4-.4c1 .7 1.8.3 2.5-.5.8-.9 1.6-.9 2.1.3.3.9.8 1 1.6.8.9-.3 1.8-.3 2.7-.6 1.8-.7 3.5-1.6 5.3 0 .2.2.5.1.8 0 1-.2 1.9-.3 2.3.8.4 1 .1 1.9-1.2 2.7.9-.4 1.6-.6 2.3-.7.9-.2 1.7-.2 2.2.8.5 1 .4 2-.5 2.7-.6.5-1.3.9-.7 1.8.1.5.1 1.2-.4 1.3-1.4.3-2.8 1.2-4.1.8-2.3-.7-4.4-1.8-6.1-3.6-1-1.1-1.8-2.7-3.8-1.6-.3.2-.7.1-1-.2-.9-1-1.6-.5-2.3.3-.3.4-.8.7-1.3.6-2-.5-3.5.5-5.2 1.3-1.7.8-3.6 1.1-5.1-.8-.4.8-.8 1.5-1.5 2.1 1.2-.2 2.3-1.1 3 .2.5.9-.4 1.4-1 1.8-.2.1-.4.2-.6.2-1.3-.2-2.7.8-4-.5-.4-.4-.6.4-.7.7-.6 1.3-1.5 2.2-2.9 2.5-.3.1-.8.2-.9.5-.8 2.2-3.1 2.5-4.8 3.4-1.8.9-4.3.3-5.1 3-1.9-.2-2.9 1.5-4.3 2.1-1.7.7-3.5.6-3.7 3.1 0 .6-1.2.8-2 .8-1.3-.1-2.4-.1-2.8 1.7-.3 1.4-1.7 1.7-3.1 1.6-.2.7.5 1.1.6 1.7.1.8-.4 1.1-.9 1.9 1-.5 1.8-.8 2.6-.4 1.5.7 3.2.9 4.8.7 2.6-.5 3.8 1.2 4.9 3.1.3.5.5 1 .7 1.5.5 1.4 1 2.5 2.8 1.7.4-.2 1 0 1.3.6.3.5.2 1.1-.1 1.6-.4.7-1.2.9-1.9 1.5 2.6-1.1 4.9-.7 7 .9 1.1.9 2.8.4 4.1 1 .8.3 1.6.4 2.3 1 .6.4.9.3 1.6 0 1.1-.5 2.4-.2 3.6.2 1.7.6 3.2.7 5.1.3 2.5-.6 5 .6 6.9 2.4.4.3.6.9 1.1.9.7.1 1.5.1 1.2-1.1-.1-.3 0 .1-.1-.2-.8-1.5.3-2.2 1.3-2.5 1.3-.3.6-1.9 1.7-2.2 1.6-.4 2.6.2 3.4 1.4.2.2.3.5 1.1.4-1.7-1.2-1.7-2.9-2.4-4.3-.4-.7-.4-1.4.4-1.8.7-.3 1.6-.3 1.8.5.4 1.3 1.3 1.2 2.2 1 1.1-.2.6-1.1.5-1.7-.1-.7.2-1.3.9-1.5 1.3-.4 2.7-.4 3.8.5.5.3.5 1 1.1 1.4.9-.9 1.2-2 1.2-3.2 0-1.1.4-1.9 1.3-2.5 1.3-.9 2.1-1.9 1.1-3.7-.7-1.3.5-2.4 1.3-3.3 1.3-1.4 1.9-2.9 1.5-4.8-.1-.4-.2-1.1.1-1.2 1.5-.6 1.1-2.2 1.8-3.2 1.4-2.1.9-4.6-1.3-5.8-1.5-.9-2.9-2.2-4.9-2.1-1 0-1.8-.7-2-1.9.4-1.4 1.5-1.4 2.5-1.1 1.3.4 2.5.3 3.6-.2.8-.1 1.4.2 1.8.9.5.9 1.2 1.3 2.2 1.5 1 .2 1.8 1 1.5 2-.7 2.5.7 4.8.5 7.3-.1 1.1-.1 2-1 2.9-1.1 1-1.5 2.4-1.2 3.9v.2c.1.8-.2 1.5-.3 2.2-.1.5-2.1.2-.5 1.3.7.5.4 1.4.1 2.2-.3.7-.9 1.3-1.3 1.9-.1.1-.1.2-.1.2-.7 3.3-2.9 6-3.1 9.5-.1 2.3-1.9 3.5-5.1 3.7 2.2.6 2.8 1.9 1.6 3.4-.3.4-.8.9-1.2.7-1.6-.9-2.5.3-3.5 1-.2.2-.5.3-.8.3-4.1-.1-6.9 2.9-10.5 4.2-.5.2-1.1.8-1.6.5-2.2-1.5-4.7-.6-7.1-.9-.2 0-.5 0-.6-.1-.8-2-3.2-2.1-4.3-3.4-1.9-2.1-4.2-1.9-6.4-1.9-1.5 0-3.2.1-4.8.5-.9.2-2.1.2-2-1.3 0-.1.2-.3 0-.2-2.3 1.1-4.1 0-5.9-1.4-1.7-1.3-2.7-1.6-4.4-.3-1.7 1.3-3.8 1.6-5.7 2.2-1.7.6-2.5-.1-2.9-2-.1-.5-.4-.7-.7-1-.6-.6-.6-1.4-.4-2.2.4-1.1 1.2-.1 2-.5-.2-1.1 0-2.4-1.8-2.4-.7 0-1.2-.7-1.6-1.3-.9-1.3-2-2-3.6-1.4-.5.2-1.1.1-1.7.4-1.5.7-2.4 0-3.1-1.2-.9-1.4.5-1.8 1.4-2.7-1.7.2-3.1-.4-4.5-.4-.6 0-1.1-.3-1.3-.9-.2-.6.2-.9.6-1.2.9-.6 1.5-1.7 3-1.5-1.7-1.5-1.7-2.5-.1-3.2 1.8-.7 3.3-2.2 5.5-2 .4 0 .8-.2 1.1-.8-1.3-.4-2.2.3-3.2.7-.7.3-1.4.6-1.9-.2s0-1.5.7-2c.6-.5 1.4-.7 2.1-.9.8-.1 1.5-.4 2.1-.9 1.4-1.1 2.6-1.9 4.1 0 .5.7 1.6.2 2.4-.2 1-.5 1.7-1.3 2.5-1.9 2.4-1.7 4.5-3.7 7.3-4.6 1.8-.6 3.3-1.9 4.8-3 3.1-2.1 6.6-3.5 10-5 .5-.2.9-.4 1.3-.8 1.6-1.7 3.6-2.6 6-2.7 3.6-.3 5.7-2.1 7.9-3.7z"/>
    <path fill="#FC8BA2" d="M165.5 48.4c-2 3.3-5.3 3.9-8.6 4.2-1.1.1-1.9.4-2.8 1.1-2.8 2.1-5.8 3.9-9.3 4.9-1.6.5-2.7 1.7-4 2.5-2.1 1.4-4.3 2.5-6.6 3.6-2.2 1.1-4.1 2.9-6.1 4.5-1.1.9-2.1 1.8-3.7 1.6-.5-.1-1 .1-1.3-.7-.4-1.4-1.4-1.2-2.2-.4-1 1.1-2.2 1.6-3.5 1.7-.8.1-1.3.5-1.9.9-.5.3-.7.7-.4 1.2.3.4.8.2 1.1 0 .9-.6 2-1 3.1-1.3.6-.2 1.2 0 1.4.6.2.6-.1 1.1-.8 1.3-.4.1-.8.4-1.2.4-2-.3-3.4 1.3-5.2 1.7-1.3.3-1.9 1.3-.3 2.1.9.5.3 1 0 1-1.4-.2-1.6 1.3-2.6 1.6-.4.2-.9.2-.6.8.2.3.6.6.9.4 1.6-.9 3.2 1.3 4.8 0 .3-.3.7.1.7.5 0 .6-.3 1.1-.9 1.3-.6.2-1.8.1-1.1 1.2.5.7.6 2.2 2.4 1.4 2.4-1 5.1-1.8 6.4 1.8.1.3.6.6.9.5 1.6-.5 1.6.8 2.1 1.6.4.7.9 1.3.1 2-.4.4-.8.3-2-.5-.1 1-.5 2 1 2.3.4.1.5.4.5.8 0 .6-1.2 1-.3 1.6.7.5 1.8.6 2.6.2 1.8-1.1 4-1.1 5.7-2.5 1.5-1.3 3.6-.7 4.6.9 1.1 1.6 3 .6 4.2 1.7.3.2 1.1-.5 1.1-1.2 0-.5.4-.8.9-.5.4.3.1.6-.1.9-.3.5-1 1-.3 1.6.5.5 1.2.2 1.8.1 2.4-.3 4.7-1.2 7.2-.3 1.6.5 3.5 0 4.1 2.3 0 .2.8.3 1.2.3 1.2 0 2.2.7 2.4 1.7.4 2 2.7 1.4 2.8 1.3 1.5-1.6 2.8-.4 4 .3 1 .5 1.5.3 2.4 0 3.5-1.3 6.3-4.5 10.5-4.2.7.1 1.3-.6 1.8-1.1.7-.6 1.1-2.4 2.3-.4.5.7 1.2-.3 1.5-.9.5-.9.4-1.6-.6-2.1-.8-.4-1.8.1-2.8-.6 1.3-1.3 3.1-.2 4.5-1.2 1.2-.8 2-1.3 1.9-3-.1-1.4-.2-3.1 1.4-4.1.5-.3.8-.9.7-1.5-.3-1.9.6-3.4 1.8-4.7.2-.2.4-.4.5-.7.3-.6.7-1.3.4-2-.4-1.1-1.2.1-1.8-.3 0-.7.5-.7 1-.9 1.2-.4 1.7-1.4 1.3-2.5-.6-2 .2-3.5 1.5-4.9 1.5-1.5.5-3.5.4-5.1-.1-1.3-.6-2.5-.2-3.8.3-.9.3-2-.8-2-1.6-.1-2.5-.8-3.1-2.2-.1-.3-.7-.4-1.1-.6v-.3c.4-.5 1.1-.4 1.5-.2 1.7.8 3.4 1.8 5.3 2.2.3.1.6.3.6.6-.1 2.7 1.7 5.2.7 7.9v.8c-1.1 1.7-2.8 3.4-2.4 5.5.5 2.3-1.8 4.6.1 6.8.1.1.1.5 0 .6-2.2 2.6-2 6.3-4.6 8.8-1.5 1.4-1.7 3.8-2.7 5.6-.3.5-.1 1 .3 1.3 1.4 1.3.4 2.1-.8 2.4-2.4.7-3.8 2.2-4.6 4.5-.3 1-.9 1.5-2.1 1.1-1.2-.4-2-.1-2.1 1.4 0 .8-.4 1.8-1.5 1.7-.9-.1-1.3-.7-1.1-1.9.3-1.5-.8-1.6-1.9-1.2-1.5.6-3.2 1.1-3.6 2.9-.9 0-.3-1.4-1.1-1-2.6 1.2-4.9-.8-7.4-.5-2.2.2-4.6 1.2-6.3-1.5-.6-.9-2.4-1.2-3.7-.2-1 .7-1.9.2-2.5-.3-1.1-1-2.5-1.2-3.7-1.9-1.5-1-3.2 0-4.7-.1-1.4-.1-3.1.4-3.3-1.9-.1-.8-.9-1.3-1.8-.7-2.8 1.9-6.7 1.7-8.9 4.7-.3.4-1 .7-1.2 0-.3-1-1-2.4-1.6-2.4-1.4 0-2.9.6-4.2 1.2-1.1.5-2.4 1.3-3.1.2-.7-1.1.6-2 2-2.8-1.5.2-2.5.3-3.4.9-1.1.8-2.3.4-3.5.3-.5-.1-.7-.4-.7-.9s.3-.7.8-.8c3.5-1 4.4-4 2.6-7.2-.9-1.5-1.2-2.2-2.7-.7-.7.8-1.7-.9-2.5.2-.4-.7.1-1.1.2-1.5.2-.5 1.2-.8.6-1.3-.6-.6-1.1-1.4-2.3-1.3-1.8.3-3.6-1.4-3.3-3.3.1-1 .7.3 1.2-.2-.8-1.5-1-3.2 0-4.8.5-.8-.2-1.1-.8-1.3-1.2-.4-1.3-1-.4-2 1.9-2.2 4.1-3.8 7-4 .8-.1 1.2-.7 1.6-1.3 1.1-1.3 2.3-1.4 3.7-.7 1.5.7 2.5.9 2.8-1.4.1-1.1 1.6-1.2 2.8-.9 2.3.7 6.9-1.2 8.1-3.4.4-.8 1.4-1.2 2-1.3 3.4-.5 5.7-3 8.4-4.7 1-.6 2.1-1.1 3.4-.9 1.7.2 2.8-.8 3.6-2 .8-1.2 1.7-1.3 3-1.6 3.4-.7 7.2-.6 10.1-2.9 1-.4 1.7-.6 2.4-.5z"/>
    <path fill="#FC8BA2" d="M191.4 54.7c-.8 1.2-2 1.2-3.2.7-1.1-.4-2-.7-2.8.5-.1.2-.3.2-.4 0-.2-.6-1.2-.2-1.1-1 .1-.7.6-.8 1.3-1 1-.1 1.2-1.1 1-2-.2-1-.9-1.2-1.7-.8-.8.3-1.7.1-2.4.6-.4.3-1.2.8-1.4.1-.3-.7.5-.9 1.1-.9 1-.1 1.3-.8 1.2-1.6-.1-.9-.5-1.5-1.5-1-.9.5-1.6.6-2.3-.4-.5-.7-1.4-.9-2.3-.3-1.7 1.2-3.9.9-5.8 1.8-.9.4-.8-.4-.9-1-.1-.5.1-1.1-.6-1.2-.6-.1-.8.3-1.1.8-.9 1.5-1.7 1-2.6 0 1.1 0 2-.3 2.5-1.3l.4-.4c2.4-.8 5-1.4 7.5-1.8 2.4-.4 5.4-1.1 7.5 1.4.5.6 1.2.1 1.8.1.2 0 .4 0 .6.1 1 1.7 1.6 3.7 2.3 5.5.8 1.6 1.4 2.6 2.9 3.1z"/>
    <path fill="#FC8BA2" d="M185.9 46.3c-.6.3-1.1.6-1.7.8-.4.1-1.2.1-1-.6.5-1.8-.7-1.5-1.6-1.5-1.3 0-2.5.1-3.8-.3-.4-.1-1.1-.1-1.4.1-2.3 1.7-4.9 1.3-7.4 1.5 2.4-.5 3.1-3.3 5.6-3.8 2.1-.4 4.1-1.1 6.2-1.7.6-.2 1.1-.1 1.5.5.3.5.8.8 1.4.6 2.2-.4 3.5.3 4.5 2.3.2.4.5 1 .9 1.1 1.8.5 2.2 2.4 3.5 3.4.9.7 1 1.6-.4 1.9-1 .2-1.7.6-1.1 1.7.5 1 1.1 2 2.4 1.2 1.1-.6 2.7-1 3.4-.2 1.2 1.3 2.3 2.3 4.2 1.7.1.3.2.7.3 1 0 .7.1 1.3 1 1.3.5 0 1.1 0 1 .7 0 .6-.4.9-1 .9-1.8.2-1.3 1-.6 2 .2.3.3.6.6.9 1.3 1.3.9 2-.7 2.4-.7.2-1.3.5-2 .7-.4-1.6-1-3.5-.9-4.9.2-3.1-.8-3.8-3.5-3.8-.7 0-1-1.3-2-1.6-.7-.2-1.1-.5-1.7.1-2 .2-3.4-.2-3-2.6 0-.3-.1-.8-.3-1-1.6-1.3-1.5-3.1-1.8-4.9.1-.1.1-.2.1-.3-.4 0-.5.2-.7.4z"/>
    <path fill="#FC809A" d="M185.1 56h.4c.4.9 1.1 1.4 2 1.4 1.6 0 2.7.7 4 1.5 1.9 1.1 2.6 2.6 3.5 4.3.5.9.2 1.6-.5 2.3-.7.7-2 1.4-.4 2.6.4.3.1 1-.6.8-1.9-.6-1.7.3-1.3 1.6.8 2.7-1.3 4.4-2.6 6.3-.6.8-.9 1.2 0 2.1 1.2 1 .1 1.9-.5 2.7-.9 1.2-2.5 4.4-2.8 5.9-.1.7-.4 1.2-1.1 1.3-.9.1-.9-.6-1-1.2-.3-1.2-3.3-1.8-4.2-1-.5.5-.2.8 0 1.3.6 1.4.1 2.2-1.5 1.9-.9-.1-2.7 1.1-2.3-1.5.1-.6-.8-.4-1.2-.3-.5.1-.8.7-.4.9 1.5 1 .1 3.7 2.6 4 .4 0 .1.7-.1 1.1-.2.5-.6.8-1.1.8-.4 0-.6-.3-.6-.7 0-1.3-1.2-1.5-2-1.8-.9-.3-1.5.3-1.7 1.2-.1.5 1.2.2.6 1-.4.5-1.1-.3-1.3 0-.5.6-2.8.5-1.1 2.3.5.5.7 1.5 0 1.6-.9.2-2.1 1.2-2.8-.1-1.5-2.6-4.6-3.8-6.5-3-3.3 1.2-5.6-.7-8.3-.9-1.5-.1-.3 1.3-1.3 1.5-1-1.5-2.8-1.9-4.6-2.3-.6-.2-1.5-1-2.2.2-.2.4-.7 0-.9-.4-1.3-2.1-3.9-2.8-6.1-1.6-.7.4-1.4.8-1.8-.1-.4-.9.5-1 1.1-1.1.4-.1.8-.3 1.1-.6.5-.4.7-1 .4-1.5-.4-.6-.9-.5-1.4-.1-1.4 1-1.9.4-2.3-1-.5-2-1.7-3.7-3.1-5.1-.6-.6-2.3-.3-3.5-.2-1 .1-2 0-2.9-.4-1.2-.5-2.3-1.2-3.4.2-.3.3-.8.2-1.1-.1-.4-.5 0-.9.4-1 1.7-.8 1.2-1.7.2-2.7-.3-.3-.4-.8-.3-1.2.1-.4.5-.3.9-.2 2.6.5 3.4-.3 2.8-3.4 1.4 1.4 2.9-.1 4.4.3.4.1 1.6-.5.9-1.6-.4-.7-.4-1.2.2-1.6.5-.3 1.1-.8 1.7-.2.7.6 1.3.3 1.8-.3 1.2-1.3 2.1-1.8 3.9-1.9.7 0 .9-.6.9-1.2 0-1.8 1.1-2 2.4-1.5 1.2.4 1.8-.5 2.6-.8 2-.6 3-2.9 4.5-3.1 2.8-.5 3.1-2.7 4.4-4.6.6 3 3 .8 4.3 1.6-.6 1.8-1.8 3-3.6 3.4-1.4.3-2 1-2.3 2.4-.4 2.3-2 3.4-4.3 3.6-1 .1-2.2-.2-2.1 1.7.1 1.2-1.4 1.2-2.3 1.3-1.2.2-2.5-.5-3.7.3-1 .7-1.7 1.9-2.9 2.5.4.5.8.2.9 0 1.2-1.7 2.2-1.5 3.4 0 1.2 1.4 2.3 3.3 4.7 2.7.7-.1 1.5.7 1.1 1.4-.7 1.2-.9 2.5-1.5 3.7-.8 1.4-1.8 1.3-3-.3-1 1.6-.2 2.5 1.1 3.2.9.5 1.9.7 2.2 1.8.2.8.9.5 1.4.4 1.7-.1 3 .4 4.6 1.5 1.7 1.3 4 2.3 6.3 2.5.6.1 1.2 0 1.5-.6.9-1.5 2.5-1.5 3.9-1.6 1.6 0 1.9.7 1.1 2.1-.3.5-.3.5-.1.6.4.3.7.1.7-.3.3-2.3 1.6-2.9 3.7-2.2.7.2 1.4-.1 2-.4 1.1-.6 0-1.2-.1-1.7-.3-1 .1-1.7 1.1-1.6 1.4.1 2.6.1 3.3-1.4.2-.4.7-.5 1.1-.5 1.4.1 2.7-.2 4-.3 1.2-.1 2.1.3 2.6 1.4.5-.6.1-1.1.1-1.6 0-.3-.3-.8-.1-1 1.3-2.1 1.8-4.5 3.1-6.6-1.5-.8-1.6-1.2-.4-2.6 1.9-2.2 4.1-4 6.8-5.6-1.1-.6-2.5-.3-3-1.5-.5-1.3.8-1.8 1.3-2.8-3.2 1.7-4.9-1.9-7.7-2-.7 0-1.3-1-2.1-.5-1 .6.5 1.3 0 2.1-1.4 1.6-3.3 1.8-4.7.2-.6-.7-1-1.1-1.9-.4-.3.2-.7.4-1 .2-2.6-1.7-5.1-.2-7.6.2-1.9.3-3.9 0-5.8.2-1 .1-1.3-.6-1.5-1.3-.2-.8-.3-1.6-.7-2.3 0-.8 1.7-.8.9-1.8-.7-.8-1.4 0-2 .5-.6.4-1.2.1-1.5-.4-.5-.7.4-.7.6-1 1.1-1.3 1.8-2.8 3.7-.6.4.4 2.8.1 4-1 1-.9 2.1-1.3 3.4-.8.8.3 1.5.2 2.1-.8.5-.8 1.5-2.2 2.4-.1.2.4.6.5.9.3 2.6-2.4 3.2.8 4.4 1.8 1.8 1.4 3.7 2.8 5.8 3.2 1.3-.4 3.6-.2 4.5-2z"/>
    <path fill="#FC8BA2" d="M119.4 93.7c-.6-.1-1-.4-.8-.9.2-.6.8-.8 1.3-.9.6-.1.6.4.6.8-.1.7-.7.7-1.1 1z"/>
    <path fill="#FC829C" d="M113.6 74.8c-.2.5-.5.7-1 .7-.4 0-.8-.2-.6-.6.2-.3.7-.5 1.1-.6.3 0 .5.2.5.5z"/>
    <path fill="#FC8BA2" d="M111.2 73.6c0 .3-.2.5-.5.6-.4 0-.6-.2-.6-.6 0-.3.3-.5.6-.5.2 0 .4.2.5.5z"/>
    <path fill="#FC829C" d="M124.5 90.7c-.6.8-.8 1.2-1.1 1.6-.4-.8-.1-1.2 1.1-1.6z"/>
    <path fill="#FC94AB" d="M185.9 46.3c.1-.7.3-1.3 1.2-1.2.1 0 .4.3.4.4-.1.6-.6.7-1.1.8h-.5z"/>
    <path fill="#FC718E" d="M158.3 61.5c.9-1.2 2.6-.5 3.2-.3 2.2.6 3.9-1.8 6-.6.5.3 1.2-.1 1.5-.5.5-.6.8-.4 1.4-.1 1 .5 1.6.5 3.2.1.5-.1.8.1 1 .4 1.5 2.2 2.4 2.4 4.4 1.1 2.5 0 2.9.7 1.9 3.3 2.8.1 4.1 2.5 2.7 5.2-.6 1.1-1.1 2.3-2.6 2.6-.9.2-1.1.8-1 1.8.3 3-.4 3.7-3.3 3.4-.6-.1-.9.1-1.1.6-.7 1.3-4.3 3.3-5.7 3.3-.1 0-.5-.2-.4 0 .7 2.1-1.2 1.4-1.9 1.8-.6.3-1.1.6-1.6 1-1.3 1.1-2.5 2.1-4.1.3-.6-.7-3.4.3-3.7 1.4-.5 1.8-1.4 1.4-2.2.5-1.5-1.6-3.5-2.6-5-4.1-.6-.6-1.2-1-2-1.1-1.1-.2-1.9-.7-2-1.9 0-1.1.8-1.7 1.8-2.1 1.9-.8 2.2-1.7.5-3.1-1.3-1-1.2-2.1-.7-3.4.5-1.3 1.4-2.3 2.9-2.4 1-.1 2 0 3-.3-1.9-.5-2.1-1.9-.5-3.4 1.3-1.3 2.7-2.6 4.3-3.5z"/>
    <path fill="#FC7794" d="M158.3 61.5c-.8 1.3-2.1 2.3-3.4 3.1-.9.6-1.2 1.3-1.6 2.2-.3.7 0 1.2.8.7.7-.4 1.3-.6 1.4.3.1.7-.5 1.2-1.2 1.2-.9.1-1.8 0-2.7.1-1.4 0-2.3.8-2.7 2.1-.3 1.2-.8 2.2 1 2.8 1.1.4.9 1.8 1 2.8.1 1.1-1.1.8-1.8 1-1.1.2-1.8.8-1.8 1.7 0 1 .7 1.6 1.9 1.4.2 0 .4 0 .6.1 1.5.9 2.3 3 4.5 3 .3 1.8 2 2.1 3 3.3.7-.7-.4-2 .6-2.2 1.4-.2 2.4-1 3.7-1.4.1 0 .4.1.5.3 1 2.1 2.3 1.4 3.4.2s2.4-1.4 3.9-1.5c-.3-.7-1.5-1.3-.5-2.1s1.1.5 1.5 1c1.2-1 2.3-2.1 3.9-2.2 1-.1.5-.8.8-1.2.5-.8.7-2.6 2.2-.8.5.5 1.3.2 1.7-.2.7-.7 1.1-1.8.6-2.6-1-1.7.2-2.1 1.2-2.6 2.1-.9 2.7-1.9 2.3-4.3 0-.2 0-.4.1-.6 1.2-2-.4-1.7-1.5-1.7-.6 0-1.3.7-1.7 0-.6-.8.6-.9.9-1.4 1.1-2.1-.8-1.9-1.7-2.5 0-.2-.1-.4-.1-.6-.2-.7-1.9-1.1-.7-1.9.6-.4 2.1-1.2 2.9.2.4.6.9.6 1.4.6.6 0 1.3-.1 1.8.5 1.1 1.3 2.3 2.2 4.1.9.5-.4 1.1 0 1.3.7.2.6-.1 1.2-.7 1.3-.7.2-1.2.4-1 1.3.2.8.8.9 1.5.9.5 0 1.1-.1 1.4.2.6.4 1 1.1 0 1.4-2.7 1-4.5 3-6.4 5-1.1 1.1-1.9 2 .6 2.1.3 0 .6.3.9.5-.3.8-1 .5-1.5.8-.3.1-.8.5-.8.6 1.2 2.9-3.8 4.5-1.6 7.6.5.6 0 1.1-.6 1.3-.8.3-1.1-.1-.9-.9v-.4c-.5-.9-1.5-.9-2-.6-1.6.9-4.1-.9-5 1.2-.6 1.4-1.1 1.3-2.1 1-.6-.2-1.3-.4-1.8.1-.6.7.3 1 .6 1.5.6 1 .7 1.7-.9 1.9-1.3.1-2.4.7-3.7-.1-.5-.3-1 .2-1.2.8-.7 1.8-.7 1.8-2.6 2.4-.4-.4.3-.7.2-.9-.5-1 2-.9.8-2-.5-.5-3.8.2-4.2.8-1 1.5-2.8 1.9-4.4.9-1.1-.7-2-1.4-3.4-1.3-.5.1-1-.3-1.2-.8-1-2.2-2.8-1.9-4.5-1.3-.7.2-1.3.3-1.3-.3 0-1.6-1.2-1.8-2.2-2.3-1.9-.9-2.4-3-1.2-4.2.4-.4.8-.6 1.3-.4.3.1.5.3.4.6-.3.5-.7 1.2.3 1.2.7 0 1.5-.8 1.4-1.3-.1-1.2.2-2 1.1-2.7.6-.5.1-1.1-.5-1.2-.7-.1-1.6-.1-2.3.1-.7.1-1.3.1-1.3-.5 0-1.7-1.9-2-2.5-3.3-.3-.7-.8-.6-1.1.2-.1.4-.4.8-.8 1-.7.5-1.8.7-2.3 0-.5-.7.6-.9 1.1-1.2 1.5-1 2.3-3.3 4.4-3 1.5.2 2.8.5 4.2-.3-.1-.5-1.2-.3-1-1.1.2-.6.7-.6 1.1-.8.9-.3 1.7-.5 2.8-.5 1.7 0 2.9-1.3 3.1-2.9.2-2 1-2.9 3-3 1.7-.1 2.2-2.1 3.5-2.9.6.4 1.1.6 1 1.5-.4.5-.4 1.5.7 1.6z"/>
    <path fill="#FC829C" d="M134.5 83.6c-.5 0-.8-.2-.7-.8.1-.4.3-.8.8-.7.5 0 .7.4.7.8 0 .5-.3.7-.8.7z"/>
    <path fill="#FC718E" d="M184.3 62.9c.1-.5.3-.8.6-.8.5 0 .6.5.7.9 0 .2-.3.5-.5.5-.4.1-.7-.3-.8-.6z"/>
  </g>
</svg>
